<svg xmlns="http://www.w3.org/2000/svg" xmlns:xlink="http://www.w3.org/1999/xlink" viewBox="0 0 2000 1333.33"><defs><style>.cls-1{fill:none;}.cls-2{isolation:isolate;}.cls-3{clip-path:url(#clip-path);}.cls-4{fill:url(#linear-gradient);}.cls-5{fill:url(#linear-gradient-2);}.cls-6{fill:url(#linear-gradient-3);}.cls-7{fill:url(#linear-gradient-4);}.cls-8{fill:url(#linear-gradient-5);}.cls-9{fill:url(#linear-gradient-6);}.cls-10{fill:url(#linear-gradient-7);}.cls-11{fill:url(#linear-gradient-8);}.cls-12{fill:url(#linear-gradient-9);}.cls-13{fill:url(#linear-gradient-10);}.cls-14{fill:url(#linear-gradient-11);}.cls-15{fill:url(#linear-gradient-12);}.cls-16{fill:url(#linear-gradient-13);}.cls-17{fill:url(#linear-gradient-14);}.cls-18{fill:url(#linear-gradient-15);}.cls-19{fill:url(#linear-gradient-16);}.cls-20{fill:#1e0d55;}.cls-20,.cls-21,.cls-38,.cls-55{opacity:0.15;}.cls-107,.cls-112,.cls-117,.cls-20,.cls-21,.cls-38,.cls-55,.cls-81{mix-blend-mode:multiply;}.cls-21{fill:url(#linear-gradient-17);}.cls-22{fill:url(#linear-gradient-18);}.cls-23{fill:url(#linear-gradient-19);}.cls-24{fill:url(#linear-gradient-20);}.cls-25{fill:url(#linear-gradient-21);}.cls-26{fill:url(#linear-gradient-22);}.cls-27{fill:url(#linear-gradient-23);}.cls-28{fill:url(#linear-gradient-24);}.cls-29{fill:url(#linear-gradient-25);}.cls-30{fill:url(#linear-gradient-26);}.cls-31{fill:url(#linear-gradient-27);}.cls-32{fill:url(#linear-gradient-28);}.cls-33{fill:url(#linear-gradient-29);}.cls-34{fill:url(#linear-gradient-30);}.cls-35{fill:url(#linear-gradient-31);}.cls-36{fill:url(#linear-gradient-32);}.cls-37{fill:url(#linear-gradient-33);}.cls-38{fill:url(#linear-gradient-34);}.cls-39{fill:url(#linear-gradient-35);}.cls-40{fill:url(#linear-gradient-36);}.cls-41{fill:url(#linear-gradient-37);}.cls-42{fill:url(#linear-gradient-38);}.cls-43{fill:url(#linear-gradient-39);}.cls-44{fill:url(#linear-gradient-40);}.cls-45{fill:url(#linear-gradient-41);}.cls-46{fill:url(#linear-gradient-42);}.cls-47{fill:url(#linear-gradient-43);}.cls-48{fill:url(#linear-gradient-44);}.cls-49{fill:url(#linear-gradient-45);}.cls-50{fill:url(#linear-gradient-46);}.cls-51{fill:url(#linear-gradient-47);}.cls-52{fill:url(#linear-gradient-48);}.cls-53{fill:url(#linear-gradient-49);}.cls-54{fill:url(#linear-gradient-50);}.cls-55{fill:url(#linear-gradient-51);}.cls-56{fill:url(#linear-gradient-52);}.cls-57{fill:url(#linear-gradient-53);}.cls-58{fill:url(#linear-gradient-54);}.cls-59{fill:url(#linear-gradient-55);}.cls-60{fill:url(#linear-gradient-56);}.cls-61{fill:url(#linear-gradient-57);}.cls-62{fill:url(#linear-gradient-58);}.cls-63{fill:url(#linear-gradient-59);}.cls-64{fill:url(#linear-gradient-60);}.cls-65{fill:url(#linear-gradient-61);}.cls-66{fill:url(#linear-gradient-62);}.cls-67{fill:url(#linear-gradient-63);}.cls-68{fill:url(#linear-gradient-64);}.cls-69{fill:url(#linear-gradient-65);}.cls-70{fill:url(#linear-gradient-66);}.cls-71{fill:url(#linear-gradient-67);}.cls-72{fill:url(#linear-gradient-68);}.cls-73{fill:url(#linear-gradient-69);}.cls-74{fill:url(#linear-gradient-70);}.cls-75{fill:url(#linear-gradient-71);}.cls-76{fill:url(#linear-gradient-72);}.cls-77{fill:url(#linear-gradient-73);}.cls-78{fill:url(#linear-gradient-74);}.cls-79{fill:url(#linear-gradient-75);}.cls-80{fill:url(#linear-gradient-76);}.cls-81{opacity:0.33;fill:url(#linear-gradient-77);}.cls-82{fill:url(#linear-gradient-78);}.cls-83{fill:url(#linear-gradient-79);}.cls-84{fill:url(#linear-gradient-80);}.cls-85{fill:url(#linear-gradient-81);}.cls-86{fill:url(#linear-gradient-82);}.cls-87{fill:url(#linear-gradient-83);}.cls-88{fill:url(#linear-gradient-84);}.cls-89{fill:url(#linear-gradient-85);}.cls-90{fill:url(#linear-gradient-86);}.cls-91{fill:url(#linear-gradient-87);}.cls-92{fill:url(#linear-gradient-88);}.cls-93{fill:url(#linear-gradient-89);}.cls-94{fill:url(#linear-gradient-90);}.cls-95{fill:url(#linear-gradient-91);}.cls-96{fill:url(#linear-gradient-92);}.cls-97{fill:url(#linear-gradient-93);}.cls-98{fill:url(#linear-gradient-94);}.cls-99{fill:url(#linear-gradient-95);}.cls-100{fill:url(#linear-gradient-96);}.cls-101{fill:url(#linear-gradient-97);}.cls-102{fill:url(#linear-gradient-98);}.cls-103{fill:url(#linear-gradient-99);}.cls-104,.cls-105,.cls-106,.cls-107,.cls-112,.cls-114,.cls-115,.cls-116,.cls-117{opacity:0.45;}.cls-104,.cls-105,.cls-106,.cls-114,.cls-115,.cls-116{mix-blend-mode:screen;}.cls-104{fill:url(#linear-gradient-100);}.cls-105{fill:url(#linear-gradient-101);}.cls-106{fill:url(#linear-gradient-102);}.cls-107{fill:url(#linear-gradient-103);}.cls-108{fill:url(#linear-gradient-104);}.cls-109{fill:url(#linear-gradient-105);}.cls-110{fill:url(#linear-gradient-106);}.cls-111{fill:url(#linear-gradient-107);}.cls-112{fill:url(#linear-gradient-108);}.cls-113{fill:url(#linear-gradient-109);}.cls-114{fill:url(#linear-gradient-110);}.cls-115{fill:url(#linear-gradient-111);}.cls-116{fill:url(#linear-gradient-112);}.cls-117{fill:url(#linear-gradient-113);}</style><clipPath id="clip-path"><rect class="cls-1" width="2000" height="1333.33"/></clipPath><linearGradient id="linear-gradient" x1="1610.44" y1="357.48" x2="1591.17" y2="484.1" gradientUnits="userSpaceOnUse"><stop offset="0" stop-color="#712353"/><stop offset="1" stop-color="#1e1554"/></linearGradient><linearGradient id="linear-gradient-2" x1="1487.37" y1="402.25" x2="1606.42" y2="403.63" gradientUnits="userSpaceOnUse"><stop offset="0" stop-color="#9b355c"/><stop offset="1" stop-color="#421653"/></linearGradient><linearGradient id="linear-gradient-3" x1="1552.12" y1="389.81" x2="1690.45" y2="466.19" xlink:href="#linear-gradient"/><linearGradient id="linear-gradient-4" x1="1385.51" y1="452.19" x2="1651.15" y2="469.4" gradientUnits="userSpaceOnUse"><stop offset="0" stop-color="#f9b995"/><stop offset="1" stop-color="#e7757d"/></linearGradient><linearGradient id="linear-gradient-5" x1="1640.59" y1="322.84" x2="1673.62" y2="497.63" gradientUnits="userSpaceOnUse"><stop offset="0" stop-color="#edbc7a"/><stop offset="1" stop-color="#c45162"/></linearGradient><linearGradient id="linear-gradient-6" x1="1483.91" y1="511.6" x2="1691.8" y2="510.5" gradientUnits="userSpaceOnUse"><stop offset="0" stop-color="#d6828f"/><stop offset="1" stop-color="#a33a7d"/></linearGradient><linearGradient id="linear-gradient-7" x1="1480.79" y1="510.81" x2="1573.71" y2="511.36" gradientUnits="userSpaceOnUse"><stop offset="0" stop-color="#f7bd8d"/><stop offset="1" stop-color="#e5717c"/></linearGradient><linearGradient id="linear-gradient-8" x1="1482.18" y1="491.15" x2="1572.38" y2="491.15" gradientUnits="userSpaceOnUse"><stop offset="0.19" stop-color="#ffdbc9"/><stop offset="1" stop-color="#f18f8c"/></linearGradient><linearGradient id="linear-gradient-9" x1="1460.94" y1="474.34" x2="1646.11" y2="493.12" gradientUnits="userSpaceOnUse"><stop offset="0" stop-color="#f1aba9"/><stop offset="1" stop-color="#945ca1"/></linearGradient><linearGradient id="linear-gradient-10" x1="1482.56" y1="513.67" x2="1629.47" y2="522.67" xlink:href="#linear-gradient-9"/><linearGradient id="linear-gradient-11" x1="1486.45" y1="502.89" x2="1633.37" y2="511.89" xlink:href="#linear-gradient-9"/><linearGradient id="linear-gradient-12" x1="1483.86" y1="510.08" x2="1630.77" y2="519.08" xlink:href="#linear-gradient-9"/><linearGradient id="linear-gradient-13" x1="1485.16" y1="506.48" x2="1632.07" y2="515.49" xlink:href="#linear-gradient-9"/><linearGradient id="linear-gradient-14" x1="1484.04" y1="516.62" x2="1587.28" y2="517.35" xlink:href="#linear-gradient-8"/><linearGradient id="linear-gradient-15" x1="1480.44" y1="516.78" x2="1583.67" y2="517.51" xlink:href="#linear-gradient-8"/><linearGradient id="linear-gradient-16" x1="1483.81" y1="516.94" x2="1587.04" y2="517.67" xlink:href="#linear-gradient-8"/><linearGradient id="linear-gradient-17" x1="1484.72" y1="499.82" x2="1533.14" y2="499.82" gradientUnits="userSpaceOnUse"><stop offset="0" stop-color="#1e0d55" stop-opacity="0"/><stop offset="1" stop-color="#1e0d55"/></linearGradient><linearGradient id="linear-gradient-18" x1="1567.37" y1="503.37" x2="1567.37" y2="537.95" xlink:href="#linear-gradient-2"/><linearGradient id="linear-gradient-19" x1="1488.27" y1="516.07" x2="1532.86" y2="525.08" gradientUnits="userSpaceOnUse"><stop offset="0" stop-color="#c84979"/><stop offset="1" stop-color="#662580"/></linearGradient><linearGradient id="linear-gradient-20" x1="1487.07" y1="520.27" x2="1531.51" y2="529.25" xlink:href="#linear-gradient-19"/><linearGradient id="linear-gradient-21" x1="1626.09" y1="503.37" x2="1626.09" y2="537.95" xlink:href="#linear-gradient-2"/><linearGradient id="linear-gradient-22" x1="1686.05" y1="503.37" x2="1686.05" y2="537.95" xlink:href="#linear-gradient-2"/><linearGradient id="linear-gradient-23" x1="1483.89" y1="638.94" x2="1691.81" y2="637.84" xlink:href="#linear-gradient-6"/><linearGradient id="linear-gradient-24" x1="1480.77" y1="638.15" x2="1573.75" y2="638.7" xlink:href="#linear-gradient-7"/><linearGradient id="linear-gradient-25" x1="1481.67" y1="616.48" x2="1572.25" y2="616.48" xlink:href="#linear-gradient-8"/><linearGradient id="linear-gradient-26" x1="1460.22" y1="599.59" x2="1646.31" y2="618.46" xlink:href="#linear-gradient-9"/><linearGradient id="linear-gradient-27" x1="1481.03" y1="641.53" x2="1632.12" y2="650.79" xlink:href="#linear-gradient-9"/><linearGradient id="linear-gradient-28" x1="1479.93" y1="630.44" x2="1631.02" y2="639.7" xlink:href="#linear-gradient-9"/><linearGradient id="linear-gradient-29" x1="1480.67" y1="637.84" x2="1631.76" y2="647.09" xlink:href="#linear-gradient-9"/><linearGradient id="linear-gradient-30" x1="1480.3" y1="634.14" x2="1631.39" y2="643.4" xlink:href="#linear-gradient-9"/><linearGradient id="linear-gradient-31" x1="1483.66" y1="644.57" x2="1587.73" y2="645.31" xlink:href="#linear-gradient-8"/><linearGradient id="linear-gradient-32" x1="1480.24" y1="644.73" x2="1584.31" y2="645.47" xlink:href="#linear-gradient-8"/><linearGradient id="linear-gradient-33" x1="1483.79" y1="644.89" x2="1587.85" y2="645.63" xlink:href="#linear-gradient-8"/><linearGradient id="linear-gradient-34" x1="1484.72" y1="626.03" x2="1533.14" y2="626.03" xlink:href="#linear-gradient-17"/><linearGradient id="linear-gradient-35" x1="1567.37" y1="629.94" x2="1567.37" y2="668.04" xlink:href="#linear-gradient-2"/><linearGradient id="linear-gradient-36" x1="1487.48" y1="644.37" x2="1533.29" y2="653.62" xlink:href="#linear-gradient-19"/><linearGradient id="linear-gradient-37" x1="1486.81" y1="648.68" x2="1532.7" y2="657.95" xlink:href="#linear-gradient-19"/><linearGradient id="linear-gradient-38" x1="1626.09" y1="629.94" x2="1626.09" y2="668.04" xlink:href="#linear-gradient-2"/><linearGradient id="linear-gradient-39" x1="1686.05" y1="629.94" x2="1686.05" y2="668.04" xlink:href="#linear-gradient-2"/><linearGradient id="linear-gradient-40" x1="1483.89" y1="766.65" x2="1691.81" y2="765.55" xlink:href="#linear-gradient-6"/><linearGradient id="linear-gradient-41" x1="1480.77" y1="765.86" x2="1573.76" y2="766.41" xlink:href="#linear-gradient-7"/><linearGradient id="linear-gradient-42" x1="1481.67" y1="743.83" x2="1572.25" y2="743.83" xlink:href="#linear-gradient-8"/><linearGradient id="linear-gradient-43" x1="1460.2" y1="726.93" x2="1646.31" y2="745.81" xlink:href="#linear-gradient-9"/><linearGradient id="linear-gradient-44" x1="1480.76" y1="769.34" x2="1632.6" y2="778.64" xlink:href="#linear-gradient-9"/><linearGradient id="linear-gradient-45" x1="1478.76" y1="758.19" x2="1630.6" y2="767.5" xlink:href="#linear-gradient-9"/><linearGradient id="linear-gradient-46" x1="1480.09" y1="765.62" x2="1631.93" y2="774.93" xlink:href="#linear-gradient-9"/><linearGradient id="linear-gradient-47" x1="1479.43" y1="761.91" x2="1631.26" y2="771.21" xlink:href="#linear-gradient-9"/><linearGradient id="linear-gradient-48" x1="1483.59" y1="772.39" x2="1587.81" y2="773.13" xlink:href="#linear-gradient-8"/><linearGradient id="linear-gradient-49" x1="1480.2" y1="772.55" x2="1584.42" y2="773.29" xlink:href="#linear-gradient-8"/><linearGradient id="linear-gradient-50" x1="1483.78" y1="772.71" x2="1588" y2="773.45" xlink:href="#linear-gradient-8"/><linearGradient id="linear-gradient-51" x1="1484.72" y1="753.54" x2="1533.14" y2="753.54" xlink:href="#linear-gradient-17"/><linearGradient id="linear-gradient-52" x1="1569.08" y1="729.21" x2="1567.01" y2="788.57" xlink:href="#linear-gradient-2"/><linearGradient id="linear-gradient-53" x1="1487.34" y1="772.25" x2="1533.37" y2="781.55" xlink:href="#linear-gradient-19"/><linearGradient id="linear-gradient-54" x1="1486.76" y1="776.58" x2="1532.92" y2="785.9" xlink:href="#linear-gradient-19"/><linearGradient id="linear-gradient-55" x1="1627.73" y1="731.28" x2="1625.66" y2="790.64" xlink:href="#linear-gradient-2"/><linearGradient id="linear-gradient-56" x1="1687.61" y1="733.37" x2="1685.55" y2="792.72" xlink:href="#linear-gradient-2"/><linearGradient id="linear-gradient-57" x1="1591.29" y1="501.65" x2="1574.81" y2="609.96" xlink:href="#linear-gradient"/><linearGradient id="linear-gradient-58" x1="1441.82" y1="567.31" x2="1606.46" y2="576.08" xlink:href="#linear-gradient-2"/><linearGradient id="linear-gradient-59" x1="1489.38" y1="543.96" x2="1724.21" y2="581.63" xlink:href="#linear-gradient"/><linearGradient id="linear-gradient-60" x1="1635.88" y1="437.77" x2="1674.42" y2="614.63" xlink:href="#linear-gradient-5"/><linearGradient id="linear-gradient-61" x1="1374.06" y1="588.75" x2="1625.42" y2="587.72" xlink:href="#linear-gradient-4"/><linearGradient id="linear-gradient-62" x1="1444.15" y1="697.5" x2="1671.25" y2="684.42" xlink:href="#linear-gradient-2"/><linearGradient id="linear-gradient-63" x1="1463.22" y1="691.21" x2="1704.77" y2="696.02" xlink:href="#linear-gradient"/><linearGradient id="linear-gradient-64" x1="1378.2" y1="716.11" x2="1646.59" y2="715.59" xlink:href="#linear-gradient-4"/><linearGradient id="linear-gradient-65" x1="1638.32" y1="559.42" x2="1678.16" y2="742.28" xlink:href="#linear-gradient-5"/><linearGradient id="linear-gradient-66" x1="1532.46" y1="901.93" x2="1703.88" y2="901.03" xlink:href="#linear-gradient-6"/><linearGradient id="linear-gradient-67" x1="1573.54" y1="863.61" x2="1568.89" y2="918.84" xlink:href="#linear-gradient-2"/><linearGradient id="linear-gradient-68" x1="1634.76" y1="868.76" x2="1630.12" y2="923.99" xlink:href="#linear-gradient-2"/><linearGradient id="linear-gradient-69" x1="1694.78" y1="873.81" x2="1690.14" y2="929.04" xlink:href="#linear-gradient-2"/><linearGradient id="linear-gradient-70" x1="1464.48" y1="896.47" x2="1586.31" y2="897.19" xlink:href="#linear-gradient-7"/><linearGradient id="linear-gradient-71" x1="1464.86" y1="885.01" x2="1527.57" y2="913.91" xlink:href="#linear-gradient-19"/><linearGradient id="linear-gradient-72" x1="1462.51" y1="890.11" x2="1525.22" y2="919.02" xlink:href="#linear-gradient-19"/><linearGradient id="linear-gradient-73" x1="1468.93" y1="892.31" x2="1542.25" y2="892.83" xlink:href="#linear-gradient-8"/><linearGradient id="linear-gradient-74" x1="1472.8" y1="898.59" x2="1575.06" y2="899.31" xlink:href="#linear-gradient-8"/><linearGradient id="linear-gradient-75" x1="1484.16" y1="906.43" x2="1587.14" y2="907.16" xlink:href="#linear-gradient-8"/><linearGradient id="linear-gradient-76" x1="1483.78" y1="828.52" x2="1504.08" y2="889.08" xlink:href="#linear-gradient-8"/><linearGradient id="linear-gradient-77" x1="1533.17" y1="925.26" x2="1490.48" y2="865.83" gradientUnits="userSpaceOnUse"><stop offset="0" stop-color="#1e0d55" stop-opacity="0"/><stop offset="0.19" stop-color="#1e0d55" stop-opacity="0.07"/><stop offset="0.44" stop-color="#1e0d55" stop-opacity="0.28"/><stop offset="0.73" stop-color="#1e0d55" stop-opacity="0.61"/><stop offset="1" stop-color="#1e0d55"/></linearGradient><linearGradient id="linear-gradient-78" x1="1550.55" y1="902.39" x2="1691.25" y2="911.01" xlink:href="#linear-gradient-9"/><linearGradient id="linear-gradient-79" x1="1609" y1="898.68" x2="1751.32" y2="907.4" xlink:href="#linear-gradient-9"/><linearGradient id="linear-gradient-80" x1="1670.76" y1="894.84" x2="1814.79" y2="903.66" xlink:href="#linear-gradient-9"/><linearGradient id="linear-gradient-81" x1="1595.43" y1="806.94" x2="1637.06" y2="896.74" xlink:href="#linear-gradient-9"/><linearGradient id="linear-gradient-82" x1="1485.54" y1="906.52" x2="1624.27" y2="915.02" xlink:href="#linear-gradient-9"/><linearGradient id="linear-gradient-83" x1="1431.23" y1="970.61" x2="1692.62" y2="955.56" xlink:href="#linear-gradient-2"/><linearGradient id="linear-gradient-84" x1="1460.13" y1="973.46" x2="1734.67" y2="978.94" xlink:href="#linear-gradient"/><linearGradient id="linear-gradient-85" x1="1670.4" y1="913.35" x2="1696.72" y2="1028.45" xlink:href="#linear-gradient-5"/><linearGradient id="linear-gradient-86" x1="1359.34" y1="977.09" x2="1562.35" y2="1066.55" xlink:href="#linear-gradient-4"/><linearGradient id="linear-gradient-87" x1="1468.68" y1="829.65" x2="1708.05" y2="834.42" xlink:href="#linear-gradient"/><linearGradient id="linear-gradient-88" x1="1443.47" y1="833.13" x2="1673.35" y2="819.9" xlink:href="#linear-gradient-2"/><linearGradient id="linear-gradient-89" x1="1388.42" y1="864.05" x2="1592.81" y2="867.49" xlink:href="#linear-gradient-4"/><linearGradient id="linear-gradient-90" x1="1639.77" y1="717.04" x2="1676.79" y2="886.98" xlink:href="#linear-gradient-5"/><linearGradient id="linear-gradient-91" x1="1557.05" y1="318.31" x2="1623.33" y2="317.95" xlink:href="#linear-gradient-6"/><linearGradient id="linear-gradient-92" x1="1558.3" y1="319.13" x2="1597.53" y2="317.06" xlink:href="#linear-gradient-7"/><linearGradient id="linear-gradient-93" x1="1567.69" y1="292.55" x2="1620.96" y2="289.75" xlink:href="#linear-gradient-7"/><linearGradient id="linear-gradient-94" x1="1595.51" y1="245.44" x2="1607.6" y2="309.41" xlink:href="#linear-gradient-5"/><linearGradient id="linear-gradient-95" x1="1543.59" y1="-89.14" x2="1612.45" y2="275.22" xlink:href="#linear-gradient"/><linearGradient id="linear-gradient-96" x1="807.64" y1="1240.66" x2="903.65" y2="1588.84" gradientTransform="matrix(-1, 0, 0, 1, 1336.96, 0)" xlink:href="#linear-gradient-6"/><linearGradient id="linear-gradient-97" x1="765.78" y1="1366.6" x2="843.87" y2="1220.67" gradientTransform="matrix(-1, 0, 0, 1, 1336.96, 0)" xlink:href="#linear-gradient-2"/><linearGradient id="linear-gradient-98" x1="783.64" y1="1325.05" x2="841.67" y2="1523.89" gradientTransform="matrix(-1, 0, 0, 1, 1336.96, 0)" xlink:href="#linear-gradient"/><linearGradient id="linear-gradient-99" x1="1038.38" y1="1141.87" x2="1139.93" y2="1449.1" gradientTransform="matrix(-1, 0, 0, 1, 1336.96, 0)" xlink:href="#linear-gradient"/><linearGradient id="linear-gradient-100" x1="686.94" y1="1359.45" x2="783.93" y2="1359.45" gradientTransform="matrix(-1, 0, 0, 1, 1336.96, 0)" xlink:href="#linear-gradient"/><linearGradient id="linear-gradient-101" x1="844.81" y1="1205.38" x2="1214.32" y2="1205.38" gradientTransform="matrix(-1, 0, 0, 1, 1336.96, 0)" xlink:href="#linear-gradient"/><linearGradient id="linear-gradient-102" x1="960.05" y1="1203.15" x2="1143.49" y2="1203.15" gradientTransform="matrix(-1, 0, 0, 1, 1336.96, 0)" xlink:href="#linear-gradient"/><linearGradient id="linear-gradient-103" x1="218.07" y1="1349.25" x2="253.85" y2="1222.63" gradientUnits="userSpaceOnUse"><stop offset="0" stop-color="#712353" stop-opacity="0"/><stop offset="1" stop-color="#1e1554"/></linearGradient><linearGradient id="linear-gradient-104" x1="1036.46" y1="1124.78" x2="1099.42" y2="1312.65" xlink:href="#linear-gradient-2"/><linearGradient id="linear-gradient-105" x1="1040.83" y1="1087.02" x2="1118.24" y2="1367.79" xlink:href="#linear-gradient-6"/><linearGradient id="linear-gradient-106" x1="1007.07" y1="1188.58" x2="1070.04" y2="1070.9" xlink:href="#linear-gradient-2"/><linearGradient id="linear-gradient-107" x1="1021.47" y1="1155.07" x2="1068.27" y2="1315.41" xlink:href="#linear-gradient"/><linearGradient id="linear-gradient-108" x1="1060.44" y1="1244.23" x2="1059.06" y2="1218.76" xlink:href="#linear-gradient-103"/><linearGradient id="linear-gradient-109" x1="1226.89" y1="1007.36" x2="1308.78" y2="1255.1" xlink:href="#linear-gradient"/><linearGradient id="linear-gradient-110" x1="943.49" y1="1182.81" x2="1021.7" y2="1182.81" xlink:href="#linear-gradient"/><linearGradient id="linear-gradient-111" x1="1070.8" y1="1058.57" x2="1368.77" y2="1058.57" xlink:href="#linear-gradient"/><linearGradient id="linear-gradient-112" x1="1163.73" y1="1056.77" x2="1311.65" y2="1056.77" xlink:href="#linear-gradient"/><linearGradient id="linear-gradient-113" x1="1305.37" y1="1200.69" x2="1270.27" y2="1098.16" xlink:href="#linear-gradient-103"/></defs><title>img-4</title><g class="cls-2"><g id="OBJECTS"><g class="cls-3"><path class="cls-4" d="M1394.66,479.63s44.3,9.63,89.72,10.32H1704.6s59.34-6.25,85.26-15.66l-296.53-7.46Z"/><path class="cls-5" d="M1581.33,330.29l-88,130.67L1400,474.29l-29.33-10.67s34.67,2.67,69.33-24,117.33-109.33,117.33-109.33Z"/><path class="cls-6" d="M1581.33,330.29H1632s154.67,104,176,114.67c0,0,13.33,8,24,2.67,0,0-8,16-42.67,18.67s-296-5.33-296-5.33Z"/><path class="cls-7" d="M1493.33,431.63S1496,453,1472,458.29s-82.67,16-101.33,5.33c0,0,13.33,10.67,24,16s109.33-8,109.33-8Z"/><path class="cls-8" d="M1493.33,431.63s11.7,19.78,63.31,23.23,214.71,6.19,231.23,5.51,33.2-4.82,44.13-12.73c0,0-7,22.37-49.63,27.87S1504,471.63,1504,471.63Z"/><rect class="cls-9" x="1484.72" y="485.89" width="234.33" height="50.16"/><rect class="cls-10" x="1484.72" y="485.89" width="48.42" height="50.16"/><rect class="cls-11" x="1481.79" y="484.44" width="49.63" height="13.42"/><rect class="cls-12" x="1531.42" y="484.44" width="190.55" height="13.42"/><rect class="cls-13" x="1533.14" y="497.86" width="6.04" height="38.19"/><rect class="cls-14" x="1713.01" y="497.86" width="6.04" height="38.19"/><rect class="cls-15" x="1593.1" y="497.86" width="6.04" height="38.19"/><rect class="cls-16" x="1653.05" y="497.86" width="6.04" height="38.19"/><rect class="cls-17" x="1530.01" y="497.86" width="3.13" height="38.19"/><rect class="cls-18" x="1503.88" y="497.86" width="3.13" height="38.19"/><rect class="cls-19" x="1484.72" y="497.86" width="3.13" height="38.19"/><rect class="cls-20" x="1533.14" y="497.86" width="185.91" height="3.91"/><polygon class="cls-21" points="1484.72 499.82 1533.14 501.78 1533.14 497.86 1484.72 497.86 1484.72 499.82"/><rect class="cls-22" x="1552.29" y="507.75" width="30.16" height="28.3"/><rect class="cls-23" x="1509.39" y="507.75" width="15.49" height="28.3"/><rect class="cls-24" x="1489.13" y="507.75" width="12.01" height="28.3"/><rect class="cls-25" x="1611.02" y="507.75" width="30.16" height="28.3"/><rect class="cls-26" x="1670.97" y="507.75" width="30.16" height="28.3"/><rect class="cls-27" x="1484.72" y="610.68" width="234.33" height="55.26"/><rect class="cls-28" x="1484.72" y="610.68" width="48.42" height="55.26"/><rect class="cls-29" x="1481.28" y="609.09" width="49.85" height="14.78"/><rect class="cls-30" x="1531.12" y="609.09" width="191.37" height="14.78"/><rect class="cls-31" x="1533.14" y="623.87" width="6.04" height="42.08"/><rect class="cls-32" x="1713.01" y="623.87" width="6.04" height="42.08"/><rect class="cls-33" x="1593.1" y="623.87" width="6.04" height="42.08"/><rect class="cls-34" x="1653.05" y="623.87" width="6.04" height="42.08"/><rect class="cls-35" x="1530.01" y="623.87" width="3.13" height="42.08"/><rect class="cls-36" x="1503.88" y="623.87" width="3.13" height="42.08"/><rect class="cls-37" x="1484.72" y="623.87" width="3.13" height="42.08"/><rect class="cls-20" x="1533.14" y="623.87" width="185.91" height="4.31"/><polygon class="cls-38" points="1484.72 626.03 1533.14 628.18 1533.14 623.87 1484.72 623.87 1484.72 626.03"/><rect class="cls-39" x="1552.29" y="634.77" width="30.16" height="31.18"/><rect class="cls-40" x="1509.39" y="634.77" width="15.49" height="31.18"/><rect class="cls-41" x="1489.13" y="634.77" width="12.01" height="31.18"/><rect class="cls-42" x="1611.02" y="634.77" width="30.16" height="31.18"/><rect class="cls-43" x="1670.97" y="634.77" width="30.16" height="31.18"/><rect class="cls-44" x="1484.72" y="737.94" width="234.33" height="56.18"/><rect class="cls-45" x="1484.72" y="737.94" width="48.42" height="56.18"/><rect class="cls-46" x="1481.28" y="736.31" width="49.85" height="15.03"/><rect class="cls-47" x="1531.12" y="736.31" width="191.37" height="15.03"/><rect class="cls-48" x="1533.14" y="751.34" width="6.04" height="42.78"/><rect class="cls-49" x="1713.01" y="751.34" width="6.04" height="42.78"/><rect class="cls-50" x="1593.1" y="751.34" width="6.04" height="42.78"/><rect class="cls-51" x="1653.05" y="751.34" width="6.04" height="42.78"/><rect class="cls-52" x="1530.01" y="751.34" width="3.13" height="42.78"/><rect class="cls-53" x="1503.88" y="751.34" width="3.13" height="42.78"/><rect class="cls-54" x="1484.72" y="751.34" width="3.13" height="42.78"/><rect class="cls-20" x="1533.14" y="751.34" width="185.91" height="4.38"/><polygon class="cls-55" points="1484.72 753.54 1533.14 755.73 1533.14 751.34 1484.72 751.34 1484.72 753.54"/><rect class="cls-56" x="1552.29" y="762.42" width="30.16" height="31.7"/><rect class="cls-57" x="1509.39" y="762.42" width="15.49" height="31.7"/><rect class="cls-58" x="1489.13" y="762.42" width="12.01" height="31.7"/><rect class="cls-59" x="1611.02" y="762.42" width="30.16" height="31.7"/><rect class="cls-60" x="1670.97" y="762.42" width="30.16" height="31.7"/><polygon class="cls-61" points="1395.78 605.04 1484.72 609.09 1533.14 609.09 1719.05 609.09 1755.62 603.22 1507.01 604.96 1395.78 605.04"/><path class="cls-62" d="M1530,536.05l-28.88,54.54s-97.1,10.32-101.74,10.32-32-1-42.32-12.9c0,0,88.06-4.31,127.64-52Z"/><path class="cls-63" d="M1530,536.05h189s86.54,52,118.54,44.22c0,0-25.81,9.81-60.39,11.35s-276.06-1-276.06-1Z"/><path class="cls-64" d="M1494.36,571.5,1507,605h212s93.25.09,118.54-24.69c0,0-29.94,8.17-60.9,8s-215.74,0-215.74,0S1509.33,587,1494.36,571.5Z"/><path class="cls-65" d="M1357.07,588s22.19,8.77,43.87,8.77,74.84-5.68,81-8.26,12.39-17,12.39-17L1507,605h-22.29l-88.93.09S1367.39,605,1357.07,588Z"/><path class="cls-66" d="M1533.14,665.95l-38,56.26s-94.88,8.26-100.47,6.71-25.2,1-37.59-13.94c0,0,20.42,2.48,40.26-1.55,33-6.71,87.39-47.48,87.39-47.48Z"/><path class="cls-67" d="M1533.14,665.95H1719S1792,713.6,1836,708.1c0,0-24.77,8.26-50.92,11s-290,3.1-290,3.1Z"/><path class="cls-68" d="M1533.14,736.31l-30.52-40.95s-5.68,20.13-36.13,24.77-67.1,5.16-74.84,5.16-27.35-2.58-34.58-10.32c0,0,12.9,19.61,36.13,20.65s91.52.69,91.52.69Z"/><path class="cls-69" d="M1502.62,695.37s25.81,18.06,63,19.61,191,2.06,205.93,1.55,48-2.92,64.52-8.43c0,0-18.58,13.59-51.61,20.82s-65.38,7.4-65.38,7.4H1533.14Z"/><polygon class="cls-70" points="1726.34 878.59 1726.34 915.73 1711.97 916.45 1672.29 918.4 1651.25 919.44 1611.6 921.41 1589.33 922.5 1549.65 924.45 1533.14 925.28 1533.14 878.59 1726.34 878.59"/><polygon class="cls-71" points="1589.33 898.77 1589.33 922.5 1549.65 924.45 1549.65 901.01 1589.33 898.77"/><polygon class="cls-72" points="1651.25 895.3 1651.25 919.44 1611.6 921.41 1611.6 897.54 1651.25 895.3"/><polygon class="cls-73" points="1711.97 891.89 1711.97 916.45 1672.29 918.4 1672.29 894.24 1711.97 891.89"/><polygon class="cls-74" points="1533.14 878.59 1533.14 925.28 1524.48 922.83 1502.8 916.64 1493.09 913.89 1473.54 908.32 1469.6 907.2 1469.6 868.11 1533.14 878.59"/><polygon class="cls-75" points="1524.48 898.34 1524.48 922.83 1502.8 916.64 1502.8 893.54 1524.48 898.34"/><polygon class="cls-76" points="1493.09 891.09 1493.09 913.89 1473.54 908.32 1473.54 887.04 1493.09 891.09"/><polygon class="cls-77" points="1471.78 907.82 1469.59 907.19 1469.59 876.84 1471.78 876.94 1471.78 907.82"/><polygon class="cls-78" points="1499.14 915.6 1496.01 914.71 1496.01 881.95 1499.14 881.95 1499.14 915.6"/><polygon class="cls-79" points="1533.14 925.28 1530.01 924.39 1530.01 888.27 1533.14 888.27 1533.14 925.28"/><polygon class="cls-80" points="1533.14 894.25 1469.59 883.37 1469.59 868.1 1533.14 878.59 1533.14 894.25"/><polygon class="cls-20" points="1533.14 896.89 1533.14 894.25 1469.59 883.37 1469.59 884.96 1533.14 896.89"/><polygon class="cls-81" points="1469.59 883.37 1533.14 925.28 1533.14 878.59 1469.59 868.1 1469.59 883.37"/><polygon class="cls-82" points="1604.9 921.73 1598.86 922.03 1598.86 889.32 1604.9 889.04 1604.9 921.73"/><polygon class="cls-83" points="1663.95 918.81 1657.91 919.11 1657.91 884.9 1663.95 884.62 1663.95 918.81"/><polygon class="cls-84" points="1726.34 915.72 1720.3 916.18 1720.3 880.22 1726.34 879.94 1726.34 915.72"/><polygon class="cls-85" points="1533.14 894.25 1730.05 885.13 1730.05 875.67 1533.14 878.59 1533.14 894.25"/><polygon class="cls-86" points="1539.18 924.83 1533.14 925.28 1533.14 894.25 1539.18 893.97 1539.18 924.83"/><polygon class="cls-20" points="1533.14 896.89 1726.34 887.6 1726.34 885.3 1533.14 894.25 1533.14 896.89"/><path class="cls-87" d="M1533.14,925.28l-63.55-18.09s-96.34,62.76-112.52,64.13a143.72,143.72,0,0,1-27.18,0s9.29,12.73,21.68,17.2S1496,1028.1,1496,1028.1s18.65-13.76,24.85-29.25S1533.14,925.28,1533.14,925.28Z"/><path class="cls-88" d="M1533.14,925.28S1509,1016.4,1496,1028.1c0,0,29.44,12.39,53.64,9.63S1818.83,1008,1836,1005s42-8.52,48.17-29.16c0,0-28.9,4.13-46.11-1.38s-111.77-58.7-111.77-58.7Z"/><path class="cls-89" d="M1496,1012.79s18.48,19.61,46.87,19.61,275.43-26.89,302.45-33.55,38.88-23.05,38.88-23.05.34,20.47-31.66,31.31-297.29,43.35-310.71,43.87-36.13-2.58-36.13-2.58S1493,1026.72,1496,1012.79Z"/><path class="cls-90" d="M1496,1012.79s1.79,21.51,9.71,35.61l-156.56-51.27s-16.52-10.32-19.27-25.81c0,0,10.67,11.35,23.74,15.48s118.37,32.69,122.84,34.06S1492.5,1018.64,1496,1012.79Z"/><path class="cls-91" d="M1533.14,794.12H1719s66.41,59.7,119.05,53.51c0,0-79.48,18.06-149.16,21.16s-150.37,7.4-188.73-3.79C1500.21,865,1529.46,810.81,1533.14,794.12Z"/><path class="cls-92" d="M1533.14,794.12s-5.75,46.11-32.93,70.88c0,0-50.24,5.16-74.32,5.51s-60.9-8.95-70.88-25.12a102,102,0,0,0,49.89-5.51c30.62-11.7,79.82-45.76,79.82-45.76Z"/><path class="cls-93" d="M1498.15,846.76l16.52,38.54s-100.47-3.44-120.43-8.26-35.1-19.27-39.23-31.66c0,0,17.89,14.8,48.86,17.55s69.51,3.1,80.52.69S1498.15,846.76,1498.15,846.76Z"/><path class="cls-94" d="M1498.15,846.76s17.89,17.89,55.57,18.92,163.61-1.55,209-6.71,75.35-11.35,75.35-11.35-34.06,22.19-65,27.35c0,0-52.13,5.68-79.48,6.19s-178.92,4.13-178.92,4.13Z"/><rect class="cls-95" x="1557.33" y="305.92" width="74.67" height="24.37"/><rect class="cls-96" x="1557.33" y="305.92" width="40.77" height="24.37"/><polygon class="cls-97" points="1598.44 275.01 1591.22 275.01 1566.28 305.92 1623.39 305.92 1598.44 275.01"/><path class="cls-98" d="M1590.49,305.92h4.29l-.81-18.44Zm8-30.91h-2.62l3,30.91h24.52Z"/><polygon class="cls-99" points="1591.22 275.01 1594.84 69.94 1598.44 275.01 1591.22 275.01"/><polygon class="cls-100" points="359.02 1506.1 591.59 1367.01 492.15 1215.95 491.46 1217.47 479.52 1243.46 359.02 1506.1"/><polygon class="cls-20" points="487.1 1286.43 504.59 1339.73 495.84 1346.76 487.1 1286.43"/><path class="cls-20" d="M479.52,1243.46c10.12,27.88,34.82,97.62,34.82,97.62l35.42-17.39-58.3-106.22Z"/><polygon class="cls-101" points="541.02 1323.68 482.77 1225.62 492.16 1215.95 553.02 1308.42 541.02 1323.68"/><polygon class="cls-102" points="418.74 1375.97 501.55 1484.77 637.92 1410.49 650.02 1403.91 553.03 1308.41 418.74 1375.97"/><polygon class="cls-103" points="-17.31 1437.84 359.02 1506.1 479.52 1243.46 479.56 1243.43 492.15 1215.95 129.45 1167.31 122.64 1179.87 -17.31 1437.84"/><polygon class="cls-104" points="553.03 1308.41 637.92 1410.49 650.02 1403.91 553.03 1308.41"/><path class="cls-105" d="M122.64,1179.87c3.6-.73,7-1.32,9.49-1.62,9.26-1.12,311.61,39,326.32,41.14s21.07,24.07,21.07,24.07l0,0,12.6-27.48-362.7-48.64Z"/><polygon class="cls-106" points="376.91 1215.95 193.47 1190.35 251.07 1205.6 376.91 1215.95"/><path class="cls-107" d="M108,1210.58l-75.35,95,291.1,146.58,77.42-187.87Zm310.71,51.61S367.14,1380.9,366.11,1385l72.26-115.61Z"/><polygon class="cls-108" points="1017.41 1196.9 1017.41 1318.58 1171.27 1378.31 1178.16 1296.94 1017.41 1196.9"/><polygon class="cls-109" points="1178.16 1301.06 990.61 1188.9 1070.8 1067.09 1071.36 1068.32 1080.98 1089.28 1178.16 1301.06"/><polygon class="cls-20" points="1074.88 1123.92 1060.77 1166.91 1067.82 1172.57 1074.88 1123.92"/><path class="cls-20" d="M1081,1089.28c-8.16,22.48-28.08,78.72-28.08,78.72l-28.56-14,47-85.65Z"/><polygon class="cls-110" points="1031.39 1153.96 1078.36 1074.89 1070.79 1067.09 1021.72 1141.66 1031.39 1153.96"/><polygon class="cls-20" points="1130 1196.13 1178.15 1301.07 990.62 1188.9 1130 1196.13"/><polygon class="cls-111" points="1130 1196.13 1063.22 1283.86 1060 1282.1 996.32 1247.41 953.25 1223.97 943.49 1218.66 1021.7 1141.65 1130 1196.13"/><path class="cls-112" d="M1122.24,1198.18c-.85,1.25-45.84,61.87-62.24,83.92l-63.68-34.69,65.52-24.45Z"/><polygon class="cls-113" points="1481.62 1246.02 1472.48 1247.68 1188.08 1299.25 1178.16 1301.06 1080.98 1089.28 1080.96 1089.25 1070.8 1067.09 1363.28 1027.86 1368.77 1038 1481.62 1246.02"/><polygon class="cls-20" points="1130 1196.13 1145.95 1281.81 1090.18 1248.45 1130 1196.13"/><polygon class="cls-114" points="1021.7 1141.65 953.25 1223.97 943.49 1218.66 1021.7 1141.65"/><path class="cls-115" d="M1368.77,1038c-2.91-.59-5.63-1.07-7.65-1.31-7.47-.91-251.28,31.44-263.15,33.17s-17,19.41-17,19.41l0,0-10.16-22.16,292.48-39.23Z"/><polygon class="cls-116" points="1163.73 1067.09 1311.65 1046.45 1265.2 1058.74 1163.73 1067.09"/><path class="cls-117" d="M1381.84,1078.45l-231.23,108.37,37.47,112.43,284.4-51.57Zm-63.3,19.61-172.73,56.43,6.19,10.32Z"/></g></g></g></svg>