<svg id="OBJECTS" xmlns="http://www.w3.org/2000/svg" xmlns:xlink="http://www.w3.org/1999/xlink" viewBox="0 0 2000 1333.33"><defs><style>.cls-1{fill:none;}.cls-2{clip-path:url(#clip-path);}.cls-3{fill:#3a0938;}.cls-4{fill:#e8276b;}.cls-5{fill:#1c0628;}</style><clipPath id="clip-path"><rect class="cls-1" width="2000" height="1333.33"/></clipPath></defs><title>img-6</title><g class="cls-2"><path class="cls-3" d="M1648.16,1288.69l-.13.64-8.24,40.4-4.69,23-19.55-1-164.27-8.4-112.77-5.76,9.63-44.05,22-11.68,20.64-37.87,59.87-3.44,24.08-25.44,33,9.63L1547,1224s36.48,30.27,44.72,33S1648.16,1288.69,1648.16,1288.69Z"/><polygon class="cls-4" points="1411.09 1303.14 1381.84 1300.72 1348.13 1293.49 1370.16 1281.81 1390.1 1293.84 1411.09 1303.14"/><polygon class="cls-4" points="1470.88 1243.86 1450.66 1240.5 1474.74 1215.06 1476.56 1228.64 1485.33 1248.77 1470.88 1243.86"/><polygon class="cls-4" points="1494.37 1267.09 1448.16 1277.17 1416.69 1266.58 1419.28 1261.68 1412.56 1265.28 1390.8 1243.94 1450.66 1240.5 1460.56 1261.94 1494.37 1267.09"/><polygon class="cls-4" points="1548.56 1235.09 1536.16 1233.81 1507.78 1224.69 1547.01 1224 1548.56 1235.09"/><polygon class="cls-5" points="1648.02 1289.33 1639.78 1329.73 1615.54 1351.7 1451.28 1343.3 1484.05 1306.58 1534.61 1317.94 1493.33 1292.13 1567.65 1279.73 1648.02 1289.33"/><path class="cls-3" d="M2012.21,1094.61l-3.39,136.72-2.8,112.4-231.68,7.63a0,0,0,0,1,0,0l-25.17.83-95.09,3.12-45.12,1.49-86.69-4.13,42-40.61s42.67-8.24,65.39-35.09l26.13-9.63s48.88-5.52,53-6.19,44.75-20.67,44.75-20.67l26.83-36.45,90.16-15.84,4.83-23.39,32.32-28.21,2.08-13.09s50.24-24.08,53-24.08S2012.21,1094.61,2012.21,1094.61Z"/><path class="cls-4" d="M1629.6,1277l-4.13,27s-18.59,12.91-27.87,12.91-33.39-4.83-33.39-4.83S1606.88,1303.84,1629.6,1277Z"/><path class="cls-4" d="M1897.52,1257l-41.52-6.19-49.2-2.4-4.13-3.09-2.05,3.09-36.83-2.05-7.23,15.81-40.61,1.73,4.83,4.48-15.49-.69-49.55-.35s48.88-5.52,53-6.19,44.75-20.67,44.75-20.67l26.83-36.45,24.11,27.17,25.09.35s28.91,13.41,31.68,14.11S1895.54,1256.37,1897.52,1257Z"/><polygon class="cls-4" points="1973.33 1192 1916.21 1191.65 1870.45 1188.21 1875.28 1164.82 1894.88 1171.01 1932.05 1176.16 1973.33 1192"/><polygon class="cls-4" points="1935.49 1140.05 1907.6 1136.61 1909.67 1123.52 1922.39 1130.4 1935.49 1140.05"/><path class="cls-5" d="M2008.82,1231.33l-2.8,112.4-231.68,7.63c12.75-15.57,36.93-45.81,36.93-45.81L1963,1325.17l-37.17-18.59,44.4-10.32,4.13-54.72Z"/><polygon class="cls-5" points="1821.07 1297.29 1909.33 1308.64 1851.01 1293.67 1821.07 1297.29"/><polygon class="cls-5" points="1777.2 1320 1749.14 1352.21 1654.05 1355.33 1777.2 1320"/><path class="cls-3" d="M400.51,1351.3l-69.41-.77-52.24-.59-29.71-.35-274.61-3.09.16-14.4.16-14,.08-8.19.59-52.77.48-44.72,0-2.35.27-24.08.32-30.11,103.89,10.32,74.32,73,54.37,2.75,33.73,8.27,41.28,28.21s59.87,19.95,66.05,24.77S400.51,1351.3,400.51,1351.3Z"/><polygon class="cls-4" points="154.83 1239.14 123.17 1259.09 24.77 1274.93 69.49 1235.01 79.15 1233.62 80.51 1166.18 154.83 1239.14"/><polygon class="cls-4" points="242.93 1250.16 197.49 1292.13 203.59 1265.95 208 1265.63 204.6 1261.64 209.2 1241.89 242.93 1250.16"/><polygon class="cls-5" points="26.16 1177.89 -23.97 1210.05 -23.71 1185.97 9.63 1175.84 26.16 1177.89"/><polygon class="cls-5" points="38.53 1183.38 34.4 1228.82 -24.48 1257.12 -24 1212.4 38.53 1183.38"/><polygon class="cls-5" points="271.15 1312.08 249.15 1349.6 -25.47 1346.5 -25.31 1332.1 144.51 1277.68 165.17 1276.98 140.4 1320.34 169.28 1286.61 188.56 1321.73 271.15 1312.08"/><polygon class="cls-5" points="61.95 1292.13 -25.15 1318.08 -25.07 1309.89 61.95 1292.13"/><polygon class="cls-5" points="331.09 1350.53 278.85 1349.94 290.4 1317.6 331.09 1350.53"/></g></svg>