<svg xmlns="http://www.w3.org/2000/svg" xmlns:xlink="http://www.w3.org/1999/xlink" viewBox="0 0 2000 1333.33"><defs><style>.cls-1{fill:none;}.cls-2{isolation:isolate;}.cls-3{clip-path:url(#clip-path);}.cls-4{fill:url(#linear-gradient);}.cls-5,.cls-6{opacity:0.5;mix-blend-mode:overlay;}.cls-5{fill:url(#linear-gradient-2);}.cls-6{fill:url(#linear-gradient-3);}.cls-7{fill:url(#linear-gradient-4);}.cls-8{fill:url(#linear-gradient-5);}.cls-9{fill:url(#linear-gradient-6);}.cls-10{fill:url(#linear-gradient-7);}</style><clipPath id="clip-path"><rect class="cls-1" width="2000" height="1333.33"/></clipPath><linearGradient id="linear-gradient" x1="1017.63" y1="1252.37" x2="974.27" y2="982.95" gradientUnits="userSpaceOnUse"><stop offset="0" stop-color="#f7a27e"/><stop offset="1" stop-color="#d02943"/></linearGradient><linearGradient id="linear-gradient-2" x1="987.27" y1="998.98" x2="1006.77" y2="1164.68" gradientUnits="userSpaceOnUse"><stop offset="0" stop-color="#fff"/><stop offset="1" stop-color="#fff" stop-opacity="0"/></linearGradient><linearGradient id="linear-gradient-3" x1="987.44" y1="1045.25" x2="1008.08" y2="1220.73" xlink:href="#linear-gradient-2"/><linearGradient id="linear-gradient-4" x1="236.8" y1="1238.37" x2="264.33" y2="1110.37" gradientUnits="userSpaceOnUse"><stop offset="0" stop-color="#f78979"/><stop offset="1" stop-color="#d00c2b"/></linearGradient><linearGradient id="linear-gradient-5" x1="1333.54" y1="1121.59" x2="1314.27" y2="979.83" xlink:href="#linear-gradient-4"/><linearGradient id="linear-gradient-6" x1="1833.32" y1="1176.71" x2="1849.02" y2="972.65" xlink:href="#linear-gradient-4"/><linearGradient id="linear-gradient-7" x1="718.38" y1="1293.27" x2="730.77" y2="1132.24" gradientTransform="matrix(1, -0.08, 0.08, 1, -63.89, 71.27)" xlink:href="#linear-gradient-4"/></defs><title>img-3</title><g class="cls-2"><g id="OBJECTS"><g class="cls-3"><path class="cls-4" d="M2028,881.28V1352H-36.48l1.39-49.17,1.81-64,2.59-91.73,2.48-88.29s84.64-4.11,103.23-2.05,80.51,0,80.51,0l41.31-2.05,7.07-2.51,46.93-16.59s18.24,12.88,24.45,12.88,24.77-10.32,24.77-10.32l22.69,2.08,22.72,10.32,41.28,4.13s282.85-8.27,303.49-16.53,49.55-28.91,49.55-28.91l31-24.77L781.06,999l20.67-8.24,14.43,12.37,18.59-22.69s12.4,14.43,18.59,14.43h22.72l20.64-2.05s235.36-47.49,274.59-59.87,103.23-35.09,103.23-35.09l18.56-12.4,14.45,6.19L1322,877.17s12.4,8.24,20.64,10.32,22.72,0,22.72,0,206.45-18.59,256-22.72S2028,881.28,2028,881.28Z"/><path class="cls-5" d="M2028,931v219l-4.56.21L-33.28,1238.85l2.59-91.73,2.48-88.29s84.64-4.11,103.23-2.05,80.51,0,80.51,0l41.31-2.05,7.07-2.51c71.95,13.55,143.6,26.51,189,33.47,121.81,18.59,425.31-8.27,549.17-28.91s361.28-109.41,485.17-115.6C1536,935.7,1932.82,931.86,2028,931Z"/><path class="cls-6" d="M2028,941.38v158.77l-4.56,50.08-5.76,63.44L409.47,1306.58l-444.56-3.76,1.81-64,2.59-91.73,14.85-47s287-4.13,433.57,8.27,375.73,14.43,458.32,4.11,307.6-117.2,481-141.17C1513.2,949.76,1943.68,942.58,2028,941.38Z"/><path class="cls-7" d="M-40.6,1151.05S.69,1079.48,64,1094.62s50.92,50.92,50.92,50.92,15.14-12.39,22-1.38a95.19,95.19,0,0,0,16.52,19.27s8.26-81.2,68.82-75.7,59.18,61.94,59.18,61.94,22-13.76,27.53-2.75,16.52,20.65,16.52,20.65,35.78-67.44,77.08-53.68,79.83,89.46,79.83,89.46,30.28-11,42.67,34.41S492,1352,492,1352l-513.37-56.43Z"/><path class="cls-8" d="M1174.71,1105.63s-35.78-67.44,4.13-88.09,68.82,0,68.82,0,2.75-20.65,16.52-12.39,17.89,17.89,17.89,17.89,37.16-99.1,70.19-77.08,17.89,70.19,17.89,70.19,67.44,1.38,82.58,12.39,56.43,31.66,33,85.33-199.64,94.78-199.64,94.78S1188.47,1189.59,1174.71,1105.63Z"/><path class="cls-9" d="M1642,1091.87s4.13-80.52,86.71-95,99.1,0,99.1,0,43.35-70.19,109.42-51.61,107.35,57.81,107.35,57.81l-45.42,245.68L1726.62,1191Z"/><path class="cls-10" d="M781.69,1173.07S806,1111.87,847.82,1117s51.69,44.38,51.69,44.38,11.83-7.8,22.06-.3a139.62,139.62,0,0,1,19.3,17.86s14.39-46.65,52.3-56.43,93.62,15,93.62,15,15.47,58.18,10.15,115.17-19.06,76-19.06,76l-499.22,24.2-175.53-21.15s.58-64.92,58.44-84.51,74.63,1.22,74.63,1.22-11.77-64,40.71-81.78,115.28-8.77,121.6,1.79,9.62-18.68,37.7-12.53S781.69,1173.07,781.69,1173.07Z"/></g></g></g></svg>