<svg xmlns="http://www.w3.org/2000/svg" xmlns:xlink="http://www.w3.org/1999/xlink" viewBox="0 0 2000 1333.33"><defs><style>.cls-1{fill:none;}.cls-2{isolation:isolate;}.cls-3{clip-path:url(#clip-path);}.cls-4{fill:url(#linear-gradient);}.cls-11,.cls-12,.cls-5,.cls-6,.cls-7,.cls-8,.cls-9{opacity:0.35;}.cls-5,.cls-6,.cls-7,.cls-8,.cls-9{mix-blend-mode:multiply;}.cls-5{fill:url(#linear-gradient-2);}.cls-6{fill:url(#linear-gradient-3);}.cls-7{fill:url(#linear-gradient-4);}.cls-8{fill:url(#linear-gradient-5);}.cls-9{fill:url(#linear-gradient-6);}.cls-10{fill:url(#linear-gradient-7);}.cls-11,.cls-12{mix-blend-mode:overlay;}.cls-11{fill:url(#linear-gradient-8);}.cls-12{fill:url(#linear-gradient-9);}</style><clipPath id="clip-path"><rect class="cls-1" width="2000" height="1333.33"/></clipPath><linearGradient id="linear-gradient" x1="262.65" y1="801.68" x2="1462.14" y2="981.29" gradientUnits="userSpaceOnUse"><stop offset="0" stop-color="#ffcfb7"/><stop offset="1" stop-color="#ffb070"/></linearGradient><linearGradient id="linear-gradient-2" x1="1272.16" y1="972.53" x2="854.36" y2="812.47" xlink:href="#linear-gradient"/><linearGradient id="linear-gradient-3" x1="1003" y1="899.39" x2="890.09" y2="856.13" xlink:href="#linear-gradient"/><linearGradient id="linear-gradient-4" x1="553.78" y1="868.48" x2="258.34" y2="755.3" xlink:href="#linear-gradient"/><linearGradient id="linear-gradient-5" x1="239.19" y1="795.85" x2="206.12" y2="783.18" xlink:href="#linear-gradient"/><linearGradient id="linear-gradient-6" x1="1987.26" y1="865.94" x2="1651.7" y2="737.38" xlink:href="#linear-gradient"/><linearGradient id="linear-gradient-7" x1="998.88" y1="1077.41" x2="998.88" y2="827.62" gradientUnits="userSpaceOnUse"><stop offset="0" stop-color="#fcbb7e"/><stop offset="1" stop-color="#fb7d4d"/></linearGradient><linearGradient id="linear-gradient-8" x1="501.88" y1="932.82" x2="487.44" y2="1056.56" gradientUnits="userSpaceOnUse"><stop offset="0" stop-color="#fff"/><stop offset="1" stop-color="#fff" stop-opacity="0"/></linearGradient><linearGradient id="linear-gradient-9" x1="483.12" y1="956.46" x2="467.28" y2="1038.25" xlink:href="#linear-gradient-8"/></defs><title>img-2</title><g class="cls-2"><g id="OBJECTS"><g class="cls-3"><path class="cls-4" d="M2042.5,801.47l-6.61,168.72L2032,1069.5H-24.08L-22,805.58s159-31,169.31-35.09,64-14.45,64-14.45,280.08,66.64,398.91,91.76l.43.08c27.36,5.79,46.08,9.33,50.72,9.33,24.77,0,417-45.41,435.6-47.49s256-12.37,256-12.37,243.63-99.09,262.21-103.23c4.37-1,30.48,4.48,67.79,13.41C1803.84,736.38,2042.5,801.47,2042.5,801.47Z"/><polygon class="cls-5" points="743.91 928.08 1037.07 886.79 1159.57 863.4 1163.7 849.63 1187.09 855.14 1421.07 871.65 914.58 954.23 743.91 928.08"/><polygon class="cls-6" points="856.77 896.43 1043.95 870.28 1043.95 862.02 856.77 896.43"/><path class="cls-7" d="M357.16,808.34l280.38,45c-7.56-1.47-16.63-3.33-26.93-5.51l-.43-.08C491.36,822.67,211.28,756,211.28,756l37.15,42.67Z"/><polygon class="cls-8" points="211.28 756.03 237.07 824.17 209.2 774.62 211.28 756.03"/><path class="cls-9" d="M2042.5,801.47l-6.61,168.72L1656.42,761.55l125.25,28.91-166.53-96.35,67.79,13.41C1803.84,736.38,2042.5,801.47,2042.5,801.47Z"/><path class="cls-10" d="M2023.91,784.26v338.56H-26.16l1.79-70.83L-22,957.84l1.73-68.53.35-14.21s64-12.37,90.83-20.64,86.72-26.85,95-26.85,37.17,16.53,57.81,18.59,328.27,48.16,392.27,61.25,280.77,37.84,313.81,39.92,198.19-22.72,206.43-22.72,274.59-97,348.91-113.55,192.72-24.32,204.4-20.64,152.77,20.64,196.13,14.45S2023.91,784.26,2023.91,784.26Z"/><path class="cls-11" d="M1022.61,988.64s-48.64,20-115.87,45.92c-27.15,10.48-57.36,21.89-88.61,33.36-53.95,19.81-111,39.71-161.09,54.91H-26.16l1.79-70.83L-22,957.84l1.73-68.53c41.95,1.65,109,3.41,197.15,3C307.41,891.68,401,927,485.49,954.34c17.63,5.71,34.88,11.07,52,15.71,78.72,21.33,338.48,20.51,442,19.28C1006.29,989,1022.61,988.64,1022.61,988.64Z"/><path class="cls-12" d="M982,987.28s-.88.72-2.56,2.05a465.87,465.87,0,0,1-72.72,45.23c-25.17,12.72-55.39,25.2-88.61,33.36q-14.72,3.68-30.19,6.05c-87.36,13.28-610.29-11.65-812.32-22L-22,957.84c54.43-6.48,120.24-13.23,157.6-13.23,67.07,0,262.19,9.63,349.92,9.73,5.92,0,11.33,0,16.19-.11C578.75,952.85,909.06,969.38,982,987.28Z"/></g></g></g></svg>