<svg id="OBJECTS" xmlns="http://www.w3.org/2000/svg" xmlns:xlink="http://www.w3.org/1999/xlink" viewBox="0 0 2000 1333.33"><defs><style>.cls-1{fill:none;}.cls-2{clip-path:url(#clip-path);}.cls-3{fill:url(#linear-gradient);}.cls-4{fill:url(#linear-gradient-2);}.cls-5{fill:url(#linear-gradient-3);}.cls-6{fill:url(#linear-gradient-4);}.cls-7{fill:url(#linear-gradient-5);}</style><clipPath id="clip-path"><rect class="cls-1" width="2000" height="1333.33"/></clipPath><linearGradient id="linear-gradient" x1="957.55" y1="824.52" x2="1812.06" y2="680.34" gradientUnits="userSpaceOnUse"><stop offset="0.19" stop-color="#ffdbc9"/><stop offset="1" stop-color="#f18f8c"/></linearGradient><linearGradient id="linear-gradient-2" x1="1206.4" y1="357.29" x2="2209.76" y2="188" xlink:href="#linear-gradient"/><linearGradient id="linear-gradient-3" x1="626.76" y1="673.53" x2="926.8" y2="629.49" gradientTransform="translate(27.23 -35.69) rotate(2.29)" xlink:href="#linear-gradient"/><linearGradient id="linear-gradient-4" x1="679.3" y1="276.29" x2="1316.55" y2="83.61" xlink:href="#linear-gradient"/><linearGradient id="linear-gradient-5" x1="316.04" y1="256.26" x2="688.68" y2="71.48" xlink:href="#linear-gradient"/></defs><title>img-1</title><g class="cls-2"><path class="cls-3" d="M843,837.93s38.68-7.25,60.44-14.51,45.93-7.25,45.93-7.25,19.34-26.59,38.68-26.59,31.43,9.67,31.43,9.67,9.67-7.25,21.76-7.25,29,7.25,29,7.25,26.59-58,79.78-60.44,62.86,9.67,62.86,9.67l26.59-4.84,26.59,9.67s-9.67-96.7,99.12-96.7,130.55,72.53,130.55,72.53,58-26.59,79.78,0,18,18.31,58,19.34,123.3,31.43,128.13,41.1S843,837.93,843,837.93Z"/><path class="cls-4" d="M1379.09,451.53l-49.55,17.89s597.33-66.06,799.65-130.75l-34.41-11s84-140.39-1.38-180.3-203.7,79.83-203.7,79.83-22-15.14-34.41-9.63-23.4,16.52-23.4,16.52-17.89-52.3-41.29-52.3-41.29,13.76-41.29,13.76-59.18-119.74-195.44-24.77-48.17,176.17-48.17,176.17-38.54,1.38-45.42,11-13.76,38.54-13.76,38.54-8.26-13.76-16.52-15.14-26.15,6.88-26.15,6.88-26.15-93.59-114.24-64.69-85.33,112.86-85.33,112.86-19.27,1.38-27.53,12.39A109.76,109.76,0,0,1,1157.5,468l-64.69,28.9Z"/><path class="cls-5" d="M619.58,689.13s172.67-12.39,249-25.87c0,0-5.12-9.85-20.3-9.08s-23.54,3.19-23.54,3.19,4.51-9.46-3.74-9.79a33.4,33.4,0,0,0-13.86,2.2s10-43.68-29-31.46S726.9,657.6,726.9,657.6s-12-10.12-21.84-5a141.16,141.16,0,0,0-18.37,11.66s-10.78-5.94-20.52-3.57S634.65,691.11,619.58,689.13Z"/><path class="cls-6" d="M639.31,344.52s441.81-86.71,674.41-191.31c0,0-42.67,0-57.81,4.13s-48.17,17.89-56.43,15.14-27.53,0-27.53,0,31.66-52.3-26.15-53.68-85.33,71.57-85.33,71.57-17.89-5.51-24.77,1.38-9.63,22-9.63,22-4.13-9.63-23.4-6.88A65.54,65.54,0,0,0,971,220.64s0-15.14-9.63-15.14-13.76,4.13-13.76,4.13,24.77-84-33-84-75.7,121.12-75.7,121.12-27.53,0-35.78,5.51-8.26,24.77-11,28.9-28.9,5.51-31.66,11-11,17.89-11,17.89Z"/><path class="cls-7" d="M305.2,308.39S613.85,174.19,652,152.52c0,0-12.39-5.16-25.81-3.1s-17.55,5.16-17.55,5.16,15.48-38.19-23.74-42.32-70.19,33-70.19,33-14.45-2.06-24.77,2.06-18.58,15.48-18.58,15.48-18.58,4.13-23.74,12.39a146,146,0,0,1-11.35,15.48s1-54.71-34.06-40.26S362,260.9,362,260.9s-17.55-11.35-25.81-1-12.39,24.77-12.39,24.77Z"/></g></svg>