<svg xmlns="http://www.w3.org/2000/svg" xmlns:xlink="http://www.w3.org/1999/xlink" viewBox="0 0 2000 1333.33"><defs><style>.cls-1{fill:none;}.cls-2{isolation:isolate;}.cls-3{clip-path:url(#clip-path);}.cls-4{fill:#2b0117;}.cls-5{fill:url(#linear-gradient);}.cls-6{fill:url(#linear-gradient-2);}.cls-7{fill:url(#linear-gradient-3);}.cls-10,.cls-13,.cls-18,.cls-20,.cls-26,.cls-28,.cls-29,.cls-37,.cls-42,.cls-43,.cls-44,.cls-47,.cls-49,.cls-53,.cls-58,.cls-60,.cls-64,.cls-68,.cls-73,.cls-75,.cls-79,.cls-8{opacity:0.5;}.cls-10,.cls-13,.cls-18,.cls-20,.cls-26,.cls-28,.cls-29,.cls-33,.cls-37,.cls-38,.cls-42,.cls-43,.cls-44,.cls-47,.cls-49,.cls-53,.cls-58,.cls-60,.cls-64,.cls-68,.cls-73,.cls-75,.cls-79,.cls-8{mix-blend-mode:multiply;}.cls-8{fill:url(#linear-gradient-4);}.cls-9{fill:url(#linear-gradient-5);}.cls-10{fill:url(#linear-gradient-6);}.cls-11{fill:url(#linear-gradient-7);}.cls-12{fill:url(#linear-gradient-8);}.cls-13{fill:url(#linear-gradient-9);}.cls-14,.cls-15,.cls-33,.cls-35,.cls-36,.cls-38,.cls-40,.cls-41{opacity:0.75;}.cls-14,.cls-15,.cls-35,.cls-36,.cls-40,.cls-41{mix-blend-mode:screen;}.cls-14{fill:url(#linear-gradient-10);}.cls-15{fill:url(#linear-gradient-11);}.cls-16{fill:url(#linear-gradient-12);}.cls-17{fill:url(#linear-gradient-13);}.cls-18{fill:url(#linear-gradient-14);}.cls-19{fill:url(#linear-gradient-15);}.cls-20{fill:url(#linear-gradient-16);}.cls-21{fill:url(#linear-gradient-17);}.cls-22{fill:url(#linear-gradient-18);}.cls-23{fill:url(#linear-gradient-19);}.cls-24{fill:url(#linear-gradient-20);}.cls-25{fill:url(#linear-gradient-21);}.cls-26{fill:url(#linear-gradient-22);}.cls-27{fill:url(#linear-gradient-23);}.cls-28{fill:url(#linear-gradient-24);}.cls-29{fill:url(#linear-gradient-25);}.cls-30{fill:url(#linear-gradient-26);}.cls-31{fill:url(#linear-gradient-27);}.cls-32{fill:url(#linear-gradient-28);}.cls-33{fill:url(#linear-gradient-29);}.cls-34{fill:url(#linear-gradient-30);}.cls-35{fill:url(#linear-gradient-31);}.cls-36{fill:url(#linear-gradient-32);}.cls-37{fill:url(#linear-gradient-33);}.cls-38{fill:url(#linear-gradient-34);}.cls-39{fill:url(#linear-gradient-35);}.cls-40{fill:url(#linear-gradient-36);}.cls-41{fill:url(#linear-gradient-37);}.cls-42{fill:url(#linear-gradient-38);}.cls-43{fill:url(#linear-gradient-39);}.cls-44{fill:url(#linear-gradient-40);}.cls-45{fill:url(#linear-gradient-41);}.cls-46{fill:url(#linear-gradient-42);}.cls-47{fill:url(#linear-gradient-43);}.cls-48{fill:url(#linear-gradient-44);}.cls-49{fill:url(#linear-gradient-45);}.cls-50{fill:url(#linear-gradient-46);}.cls-51{fill:url(#linear-gradient-47);}.cls-52{fill:url(#linear-gradient-48);}.cls-53{fill:url(#linear-gradient-49);}.cls-54{fill:url(#linear-gradient-50);}.cls-55{fill:url(#linear-gradient-51);}.cls-56{fill:url(#linear-gradient-52);}.cls-57{fill:url(#linear-gradient-53);}.cls-58{fill:url(#linear-gradient-54);}.cls-59{fill:url(#linear-gradient-55);}.cls-60{fill:url(#linear-gradient-56);}.cls-61{fill:url(#linear-gradient-57);}.cls-62{fill:url(#linear-gradient-58);}.cls-63{fill:url(#linear-gradient-59);}.cls-64{fill:url(#linear-gradient-60);}.cls-65{fill:url(#linear-gradient-61);}.cls-66{fill:url(#linear-gradient-62);}.cls-67{fill:url(#linear-gradient-63);}.cls-68{fill:url(#linear-gradient-64);}.cls-69{fill:url(#linear-gradient-65);}.cls-70{fill:url(#linear-gradient-66);}.cls-71{fill:url(#linear-gradient-67);}.cls-72{fill:url(#linear-gradient-68);}.cls-73{fill:url(#linear-gradient-69);}.cls-74{fill:url(#linear-gradient-70);}.cls-75{fill:url(#linear-gradient-71);}.cls-76{fill:url(#linear-gradient-72);}.cls-77{fill:url(#linear-gradient-73);}.cls-78{fill:url(#linear-gradient-74);}.cls-79{fill:url(#linear-gradient-75);}.cls-80{fill:url(#linear-gradient-76);}</style><clipPath id="clip-path"><rect class="cls-1" width="2000" height="1333.33"/></clipPath><linearGradient id="linear-gradient" x1="1866.06" y1="1041.44" x2="1957.37" y2="1115.77" gradientUnits="userSpaceOnUse"><stop offset="0" stop-color="#b1213a"/><stop offset="1" stop-color="#5d0231"/></linearGradient><linearGradient id="linear-gradient-2" x1="1898.86" y1="1027.45" x2="1918.21" y2="1048.87" gradientUnits="userSpaceOnUse"><stop offset="0" stop-color="#cc7080"/><stop offset="1" stop-color="#7f0231" stop-opacity="0"/></linearGradient><linearGradient id="linear-gradient-3" x1="1837.74" y1="1062.8" x2="1856.58" y2="1086.8" xlink:href="#linear-gradient-2"/><linearGradient id="linear-gradient-4" x1="1912.08" y1="1069.92" x2="1945.11" y2="1129.1" gradientUnits="userSpaceOnUse"><stop offset="0" stop-color="#b1213a"/><stop offset="1" stop-color="#5d0231" stop-opacity="0"/></linearGradient><linearGradient id="linear-gradient-5" x1="1953.85" y1="967.78" x2="1997.97" y2="1003.7" xlink:href="#linear-gradient"/><linearGradient id="linear-gradient-6" x1="1978.99" y1="988.28" x2="1996.19" y2="1008.24" xlink:href="#linear-gradient-4"/><linearGradient id="linear-gradient-7" x1="1933.32" y1="988.69" x2="1943.9" y2="998.75" gradientTransform="translate(668.17 -775.91) rotate(27.17)" xlink:href="#linear-gradient-2"/><linearGradient id="linear-gradient-8" x1="1899.67" y1="879.98" x2="1988.86" y2="952.58" xlink:href="#linear-gradient"/><linearGradient id="linear-gradient-9" x1="1948.88" y1="920.56" x2="1969.52" y2="957.72" xlink:href="#linear-gradient-4"/><linearGradient id="linear-gradient-10" x1="1917.16" y1="847.1" x2="1962.58" y2="898.71" xlink:href="#linear-gradient-2"/><linearGradient id="linear-gradient-11" x1="1861.81" y1="917.61" x2="1883.49" y2="950.65" xlink:href="#linear-gradient-2"/><linearGradient id="linear-gradient-12" x1="1407.84" y1="987.45" x2="1544.1" y2="1231.06" xlink:href="#linear-gradient"/><linearGradient id="linear-gradient-13" x1="1439.02" y1="993.97" x2="1491.32" y2="1077.93" xlink:href="#linear-gradient-2"/><linearGradient id="linear-gradient-14" x1="1465.56" y1="1080.99" x2="1530.94" y2="1218.62" xlink:href="#linear-gradient-4"/><linearGradient id="linear-gradient-15" x1="965.18" y1="1213.5" x2="1157.44" y2="1334.3" xlink:href="#linear-gradient"/><linearGradient id="linear-gradient-16" x1="1139.49" y1="1295.26" x2="1142.93" y2="1368.89" xlink:href="#linear-gradient-4"/><linearGradient id="linear-gradient-17" x1="972.39" y1="1196.29" x2="1048.09" y2="1361.46" xlink:href="#linear-gradient-2"/><linearGradient id="linear-gradient-18" x1="913.83" y1="1288.03" x2="951.68" y2="1369.23" xlink:href="#linear-gradient-2"/><linearGradient id="linear-gradient-19" x1="1150.29" y1="1259.26" x2="1201.9" y2="1334.96" xlink:href="#linear-gradient-2"/><linearGradient id="linear-gradient-20" x1="1264.33" y1="1178.5" x2="1362.56" y2="1240.22" xlink:href="#linear-gradient"/><linearGradient id="linear-gradient-21" x1="1266.42" y1="1200.32" x2="1291.71" y2="1243.67" xlink:href="#linear-gradient-2"/><linearGradient id="linear-gradient-22" x1="1385.71" y1="1293.82" x2="1345.11" y2="1198.16" xlink:href="#linear-gradient-4"/><linearGradient id="linear-gradient-23" x1="1329.35" y1="1073.18" x2="1419.15" y2="1175.89" gradientTransform="translate(73.64 -90.63) rotate(4.73)" xlink:href="#linear-gradient"/><linearGradient id="linear-gradient-24" x1="1431.83" y1="1194.11" x2="1396.22" y2="1148.69" gradientTransform="translate(73.64 -90.63) rotate(4.73)" xlink:href="#linear-gradient-4"/><linearGradient id="linear-gradient-25" x1="1395.26" y1="1110.07" x2="1408.33" y2="1053.29" gradientTransform="translate(73.64 -90.63) rotate(4.73)" xlink:href="#linear-gradient-4"/><linearGradient id="linear-gradient-26" x1="1354.07" y1="1062.72" x2="1394.59" y2="1104.01" gradientTransform="translate(73.64 -90.63) rotate(4.73)" xlink:href="#linear-gradient-2"/><linearGradient id="linear-gradient-27" x1="1290.33" y1="1120.65" x2="1349.43" y2="1163.75" gradientTransform="translate(73.64 -90.63) rotate(4.73)" xlink:href="#linear-gradient-2"/><linearGradient id="linear-gradient-28" x1="1609.12" y1="1083.71" x2="1702.71" y2="1142.52" xlink:href="#linear-gradient"/><linearGradient id="linear-gradient-29" x1="1722.94" y1="1152.01" x2="1552.96" y2="1065.99" xlink:href="#linear-gradient-4"/><linearGradient id="linear-gradient-30" x1="1567.43" y1="1108.19" x2="1722.96" y2="1205.91" xlink:href="#linear-gradient"/><linearGradient id="linear-gradient-31" x1="1500.68" y1="1196" x2="1522.35" y2="1221.46" xlink:href="#linear-gradient-2"/><linearGradient id="linear-gradient-32" x1="1555.42" y1="1155.25" x2="1581.92" y2="1202.74" xlink:href="#linear-gradient-2"/><linearGradient id="linear-gradient-33" x1="1699.53" y1="1195.35" x2="1752.17" y2="1327.48" xlink:href="#linear-gradient-4"/><linearGradient id="linear-gradient-34" x1="1531.92" y1="1182.23" x2="1552.92" y2="1202.29" xlink:href="#linear-gradient-4"/><linearGradient id="linear-gradient-35" x1="1584.51" y1="991.53" x2="1721.45" y2="1103.01" xlink:href="#linear-gradient"/><linearGradient id="linear-gradient-36" x1="1596.29" y1="924.86" x2="1690.75" y2="994.02" xlink:href="#linear-gradient-2"/><linearGradient id="linear-gradient-37" x1="1561.98" y1="1030.47" x2="1610.5" y2="1076.93" xlink:href="#linear-gradient-2"/><linearGradient id="linear-gradient-38" x1="1689.24" y1="1094.53" x2="1705.75" y2="1138.57" xlink:href="#linear-gradient-4"/><linearGradient id="linear-gradient-39" x1="1711.82" y1="1043.43" x2="1776.85" y2="1024.85" xlink:href="#linear-gradient-4"/><linearGradient id="linear-gradient-40" x1="1677.4" y1="1000.72" x2="1733.14" y2="980.76" xlink:href="#linear-gradient-4"/><linearGradient id="linear-gradient-41" x1="620.13" y1="1207.69" x2="628.92" y2="1357.18" xlink:href="#linear-gradient"/><linearGradient id="linear-gradient-42" x1="576.96" y1="1217.48" x2="584.53" y2="1275.98" xlink:href="#linear-gradient-2"/><linearGradient id="linear-gradient-43" x1="631.75" y1="1285.9" x2="634.51" y2="1343.71" xlink:href="#linear-gradient-4"/><linearGradient id="linear-gradient-44" x1="648.43" y1="1259.97" x2="744.26" y2="1320.18" xlink:href="#linear-gradient"/><linearGradient id="linear-gradient-45" x1="732.69" y1="1292.29" x2="745.08" y2="1358.87" xlink:href="#linear-gradient-4"/><linearGradient id="linear-gradient-46" x1="668.55" y1="1271.48" x2="681.97" y2="1329.8" xlink:href="#linear-gradient-2"/><linearGradient id="linear-gradient-47" x1="773.46" y1="1242.01" x2="785.08" y2="1268.59" xlink:href="#linear-gradient-2"/><linearGradient id="linear-gradient-48" x1="692.97" y1="1056.41" x2="699.16" y2="1208.67" xlink:href="#linear-gradient"/><linearGradient id="linear-gradient-49" x1="696.85" y1="1156.97" x2="704.08" y2="1213.74" xlink:href="#linear-gradient-4"/><linearGradient id="linear-gradient-50" x1="696.89" y1="1051.27" x2="693.79" y2="1089.46" xlink:href="#linear-gradient-2"/><linearGradient id="linear-gradient-51" x1="596.98" y1="1063.52" x2="621.04" y2="1116.01" xlink:href="#linear-gradient-2"/><linearGradient id="linear-gradient-52" x1="478.37" y1="1031.52" x2="487.16" y2="1181.01" xlink:href="#linear-gradient"/><linearGradient id="linear-gradient-53" x1="435.2" y1="1041.31" x2="442.77" y2="1099.81" xlink:href="#linear-gradient-2"/><linearGradient id="linear-gradient-54" x1="489.99" y1="1109.73" x2="492.74" y2="1167.53" xlink:href="#linear-gradient-4"/><linearGradient id="linear-gradient-55" x1="506.67" y1="1083.8" x2="602.5" y2="1144.01" xlink:href="#linear-gradient"/><linearGradient id="linear-gradient-56" x1="590.93" y1="1116.12" x2="603.31" y2="1182.7" xlink:href="#linear-gradient-4"/><linearGradient id="linear-gradient-57" x1="526.79" y1="1095.31" x2="540.21" y2="1153.63" xlink:href="#linear-gradient-2"/><linearGradient id="linear-gradient-58" x1="631.7" y1="1065.84" x2="643.31" y2="1092.42" xlink:href="#linear-gradient-2"/><linearGradient id="linear-gradient-59" x1="551.2" y1="880.24" x2="557.4" y2="1032.5" xlink:href="#linear-gradient"/><linearGradient id="linear-gradient-60" x1="555.09" y1="980.8" x2="562.31" y2="1037.57" xlink:href="#linear-gradient-4"/><linearGradient id="linear-gradient-61" x1="555.13" y1="875.09" x2="552.03" y2="913.29" xlink:href="#linear-gradient-2"/><linearGradient id="linear-gradient-62" x1="455.22" y1="887.35" x2="479.28" y2="939.84" xlink:href="#linear-gradient-2"/><linearGradient id="linear-gradient-63" x1="171.42" y1="1152.67" x2="132.5" y2="1258.87" gradientTransform="translate(153.3 -108.8) rotate(10.16)" xlink:href="#linear-gradient"/><linearGradient id="linear-gradient-64" x1="171.89" y1="1186.87" x2="107.98" y2="1251.75" gradientTransform="translate(153.3 -108.8) rotate(10.16)" xlink:href="#linear-gradient-4"/><linearGradient id="linear-gradient-65" x1="81.67" y1="956.44" x2="86.42" y2="1073.26" gradientTransform="translate(153.3 -108.8) rotate(10.16)" xlink:href="#linear-gradient"/><linearGradient id="linear-gradient-66" x1="182.26" y1="991.75" x2="175.29" y2="1031.56" gradientTransform="translate(153.3 -108.8) rotate(10.16)" xlink:href="#linear-gradient-2"/><linearGradient id="linear-gradient-67" x1="137" y1="949.09" x2="127.45" y2="1003.6" gradientTransform="translate(153.3 -108.8) rotate(10.16)" xlink:href="#linear-gradient-2"/><linearGradient id="linear-gradient-68" x1="48.54" y1="958.51" x2="45.15" y2="977.84" gradientTransform="translate(153.3 -108.8) rotate(10.16)" xlink:href="#linear-gradient-2"/><linearGradient id="linear-gradient-69" x1="101.77" y1="979" x2="67.17" y2="1070.63" gradientTransform="translate(153.3 -108.8) rotate(10.16)" xlink:href="#linear-gradient-4"/><linearGradient id="linear-gradient-70" x1="253.27" y1="986.19" x2="257.04" y2="1078.92" gradientTransform="translate(153.3 -108.8) rotate(10.16)" xlink:href="#linear-gradient"/><linearGradient id="linear-gradient-71" x1="257.07" y1="1023.48" x2="248.1" y2="1070.26" gradientTransform="translate(153.3 -108.8) rotate(10.16)" xlink:href="#linear-gradient-4"/><linearGradient id="linear-gradient-72" x1="319.52" y1="987.56" x2="303.18" y2="1025.05" gradientTransform="translate(153.3 -108.8) rotate(10.16)" xlink:href="#linear-gradient-2"/><linearGradient id="linear-gradient-73" x1="247.12" y1="976.51" x2="238.47" y2="1025.85" gradientTransform="translate(153.3 -108.8) rotate(10.16)" xlink:href="#linear-gradient-2"/><linearGradient id="linear-gradient-74" x1="173.06" y1="1096" x2="177.35" y2="1201.52" gradientTransform="translate(153.3 -108.8) rotate(10.16)" xlink:href="#linear-gradient"/><linearGradient id="linear-gradient-75" x1="182.2" y1="1135.6" x2="153.84" y2="1205.76" gradientTransform="translate(153.3 -108.8) rotate(10.16)" xlink:href="#linear-gradient-4"/><linearGradient id="linear-gradient-76" x1="146.2" y1="1087.31" x2="141.17" y2="1116.01" gradientTransform="translate(153.3 -108.8) rotate(10.16)" xlink:href="#linear-gradient-2"/></defs><title>img-5</title><g class="cls-2"><g id="OBJECTS"><g class="cls-3"><polygon class="cls-4" points="1967.13 1025.81 1968.5 1009.29 1974.35 1010.32 1976.07 1030.62 1967.13 1025.81"/><path class="cls-5" d="M2011,1101.86c-17.39,32.35-37,57.79-66.05,60.91s-58,14.11-78.64,0-44.32-53.31-45.41-60.91a28,28,0,0,1-.75-3.79,36,36,0,0,1,2-18.32,27.53,27.53,0,0,1,9.07-11.63c16-12,33.89-6.24,35-5.87a.09.09,0,0,1,.05,0l7.57-2.69s-2-3.17-.72-8.21c.8-3.36,3.07-7.55,8.29-12.21,11.57-10.29,39.39-18.51,48.91-20.24a15.54,15.54,0,0,1,2.69-.35c4.72,0,27.89,6.21,37.28,4.05a3.78,3.78,0,0,0,.59-.13c8.93-2.53,22-5.31,31,11.23S2028.38,1069.51,2011,1101.86Z"/><path class="cls-6" d="M1928.6,1049.89a30.43,30.43,0,0,1-25.31.35l-6.53,1.2s-20.8,12.91-23.6-.05c.8-3.36,3.07-7.55,8.29-12.21,11.57-10.29,39.39-18.51,48.91-20.24,4.24.37,11.87,1.57,14.4,5.33C1948.38,1029.59,1942.17,1043.54,1928.6,1049.89Z"/><path class="cls-7" d="M1857.53,1082.42c-12,4.61-32.13,3.31-35.39-2.67a27.53,27.53,0,0,1,9.07-11.63c16-12,33.89-6.24,35-5.87a.09.09,0,0,1,.05,0S1870.94,1077.25,1857.53,1082.42Z"/><path class="cls-8" d="M2011,1101.86c-17.39,32.35-37,57.79-66.05,60.91s-58,14.11-78.64,0-44.32-53.31-45.41-60.91a28,28,0,0,1-.75-3.79,112.12,112.12,0,0,1,26.91-5.17c20.64-1.36,46.24,13.33,51.76,14s12.91-36.05,12.91-36.05,18.45-14.91,37.79-18.8c13.2-2.67,18.67-19.2,20.83-29.44a3.78,3.78,0,0,0,.59-.13c8.93-2.53,22-5.31,31,11.23S2028.38,1069.51,2011,1101.86Z"/><path class="cls-9" d="M2032,985.46c-4.64,16.85-18.59,25-34.32,28.53s-50.24,9.47-59.95,0a51,51,0,0,1-7.47-6.67c-3-3.28-5.55-7.33-5.09-11.12s6-8.59,11.89-12.64c7-4.83,14.64-8.53,15.12-8.11.85.8,2.21-11.6,13.92-16.4s24.77-9,35.79-5.52S2036.62,968.61,2032,985.46Z"/><path class="cls-10" d="M2032,985.46c-4.64,16.85-18.59,25-34.32,28.53s-50.24,9.47-59.95,0a51,51,0,0,1-7.47-6.67c7,.93,15.89,1.12,22.08-2.16a35.88,35.88,0,0,0,15.84-17.2l13.76-5.52s11,13.76,21.33,4.13-13.76-16.51-22.72-14.45c-8,1.84-30.91,11.41-43.49,11.44,7-4.83,14.64-8.53,15.12-8.11.85.8,2.21-11.6,13.92-16.4s24.77-9,35.79-5.52S2036.62,968.61,2032,985.46Z"/><ellipse class="cls-11" cx="1939.38" cy="994.45" rx="10.71" ry="6.58" transform="translate(-240.1 995.41) rotate(-27.17)"/><path class="cls-12" d="M2053.66,896.34c-2.93,38.29-10.16,55.6-32,64.16s-45.95,5.23-49.39,5.84-24.08,14.16-40.59,10.48c0,0-16.53,8.51-26.16,0h-6.72s-1.23,18.88-27.89,10.08c-15.47-5.12-24.48-18-25.6-31.23A31.84,31.84,0,0,1,1856,929c19.28-17.12,37.17-14.11,37.17-14.11a0,0,0,0,1,0,0,67.2,67.2,0,0,1-6.69-14c-2.61-7.84-3.79-17.39,2-24.19,11.6-13.65,26.27-15,30.64-21.92s5.39-21.33,25.87-24.08c13.09-1.76,24.77-2.24,35.49-.43a62.89,62.89,0,0,1,17.23,5.41c7.25,3.52,21,8.77,33.07,17.44C2044,862.66,2055.21,876.31,2053.66,896.34Z"/><path class="cls-13" d="M2053.66,896.34c-2.93,38.29-10.16,55.6-32,64.16s-45.95,5.23-49.39,5.84-24.08,14.16-40.59,10.48c0,0-16.53,8.51-26.16,0h-6.72s-1.23,18.88-27.89,10.08c-15.47-5.12-24.48-18-25.6-31.23,5.41,7.44,15.68,17.92,28.4,14.4,18.56-5.17,49-14.45,47-24.77s-8.27-15.49-8.27-15.49l5.68-1s29.95,8.77,46.45-6.69c16.13-15.15-5.68-44.08-6.69-45.39,1.33,1.07,42.19,34.35,66.56,23.71,17.52-7.68,15.41-30.29,6.32-47.25C2044,862.66,2055.21,876.31,2053.66,896.34Z"/><path class="cls-14" d="M1980.44,830.29c-2.43,6.19-7,14.56-14.35,18-11.71,5.49-38.19,6.19-39.92,8.61s22,27.87,8.27,40.59c-10.61,9.84-35.57,11.87-48,3.44-2.61-7.84-3.79-17.39,2-24.19,11.6-13.65,26.27-15,30.64-21.92s5.39-21.33,25.87-24.08C1958,829,1969.72,828.47,1980.44,830.29Z"/><path class="cls-15" d="M1890.06,938.42c-10.59,6.85-33.73,9.68-43.73,6.08A31.34,31.34,0,0,1,1856,929c19.28-17.12,37.17-14.11,37.17-14.11S1903.82,929.46,1890.06,938.42Z"/><path class="cls-16" d="M1582.8,1176.5c-3.44,22.72-27.79,62.64-62.64,67.44s-94.27-17.2-105.28-31.65c-8.45-11.09-21-48.19-26.32-75.39a115.59,115.59,0,0,1-2.59-21s4.83-18.56,13.09-23.39,18.56-5.49,18.56-5.49-13.17-28.05-17.47-47.76c-1.17-5.36-1.68-10.11-1.09-13.49,2.75-15.84,20.64-22.72,42-33.73s31.65-13.76,45.41-13.07a43.68,43.68,0,0,1,11,2c10.24,3.25,19.65,10.56,22.69,22.75.35,1.39.72,2.77,1.09,4.13,4.24,14.88,11,28.43,23,38.53,13.09,11,32.35,24.08,39.89,44.72S1586.24,1153.81,1582.8,1176.5Z"/><path class="cls-17" d="M1477.84,1046.8c-17.89,14.11-38.88,21.68-55,14.45-9.36-4.19-18.37-11.49-22.64-21.95-1.17-5.36-1.68-10.11-1.09-13.49,2.75-15.84,20.64-22.72,42-33.73s31.65-13.76,45.41-13.07a43.68,43.68,0,0,1,11,2,13.24,13.24,0,0,1,4.13,4.85C1508.82,1000.69,1495.73,1032.69,1477.84,1046.8Z"/><path class="cls-18" d="M1582.8,1176.5c-3.44,22.72-27.79,62.64-62.64,67.44s-94.27-17.2-105.28-31.65c-8.45-11.09-21-48.19-26.32-75.39,9.07,8.21,21.12,16.13,35.28,18.27,32.32,4.83,48.16-1.36,51.6-13.76,3.39-12.16-29.73-40.91-30.93-41.95.91.51,18.43,10.19,39.2,6.16,21.33-4.13,29.57-28.21,23.39-32.35s-11.71-8.24-11.71-8.24,29.6-8.27,26.16-26.85c-1.71-9.15-1.23-20.8-.29-30.27,4.24,14.88,11,28.43,23,38.53,13.09,11,32.35,24.08,39.89,44.72S1586.24,1153.81,1582.8,1176.5Z"/><path class="cls-19" d="M1382.88,1347.86l-131.09,53.68-350.93-57.47-8.29-1.36s-1-14.75,2.48-27.6c1.55-5.79,4-11.2,7.84-14.72,12.4-11.36,31-10.35,31-10.35l10.32-2.05s-8.61-12.13-11.12-27.36c-2-12.13-.08-26.21,13.2-37.68,29.92-25.79,43.36-38.19,67.09-27.87s39.23,20.64,44.4,38.19a29.14,29.14,0,0,0,1,3c5.87,15.92,19.6,26.91,19.6,26.91s34.05,7.23,39.23,16.51c.59,1,1.15,1.52,1.81,1.55h0c4.93,0,12.77-27.65,45.63-22.19a158.84,158.84,0,0,1,38.67,11.76c15.25,6.83,25,13.87,27.41,15.09,4.13,2.05,38.19-7.23,49.55-5.17s66.05-10.32,79.47,7.23c5.6,7.31,10.45,18.88,14.24,29.92A310.93,310.93,0,0,1,1382.88,1347.86Z"/><path class="cls-20" d="M1382.88,1347.86l-131.09,53.68-350.93-57.47c1.92-6.32,8.16-16.4,27.49-26.48,31.65-16.53,47.49-20.67,57.81-14.45s24.77,21.33,24.77,21.33,19.95-4.83,33.71-11,35.09-10.32,43.36-3.44,22.72,9.63,22.72,9.63,15.81-29.6,52.29-22.72,51.6,14.45,57.12,22,26.83,1.39,34.4.69,27.52-2.75,27.52-2.75a295.23,295.23,0,0,1,36.48-3.44c14.24-.48,39,0,55.87,4.45A310.93,310.93,0,0,1,1382.88,1347.86Z"/><path class="cls-21" d="M1058.77,1236.32c-5.07,3.07-12.48,4.61-20.67,6.77C1018.5,1248.26,1003,1224,1003,1224s4.13,38.72-16,47-33.55,5.68-50.08-6.69a25.46,25.46,0,0,1-3.89-3.63c-2-12.13-.08-26.21,13.2-37.68,29.92-25.79,43.36-38.19,67.09-27.87s39.23,20.64,44.4,38.19A29.14,29.14,0,0,0,1058.77,1236.32Z"/><path class="cls-22" d="M935.92,1302.45c-16.53,11.87-32.53,19.09-37.68,15-1-.8-2.13-1.55-3.2-2.29,1.55-5.79,4-11.2,7.84-14.72,12.4-11.36,31-10.35,31-10.35l10.32-2.05S952.42,1290.58,935.92,1302.45Z"/><path class="cls-23" d="M1204.64,1285.25c-8.93,5.84-61.92,4.48-72.24,2.4-9.17-1.81-12.37-5.55-13-6.37,4.93,0,12.77-27.65,45.63-22.19a158.84,158.84,0,0,1,38.67,11.76C1209,1276.45,1209.6,1282,1204.64,1285.25Z"/><path class="cls-24" d="M1478.88,1235.7c-.69,14.45-9.63,25.47-18.59,35.79s-43.36,23.39-64,28.21-34.4,13.76-46.8,18.56-55,6.91-67.44-1.36-29.57-28.91-30.27-48.19c-.64-17.95,8.29-18.56,9.49-18.56h.13l-4.13-5.52s-13.76.69-18.56-8.24a58.89,58.89,0,0,1-2.64-5.39l0,0c-3-7.15-3.65-14.75,4-26.27,9.65-14.45,34.43-20.64,34.43-20.64s12.69-3,26.4-7.31c9.09-2.88,18.64-6.32,25.2-9.89,13.41-7.25,54.51-13.15,81.65-12.91a96.39,96.39,0,0,1,16.08,1.2c22.69,4.13,34.4,24.77,35.76,29.6s0,16.51,0,16.51,11.71,2.08,15.15,6.21S1479.57,1221.25,1478.88,1235.7Z"/><path class="cls-25" d="M1299.28,1212.64c-3.63,7.76-10.85,16.53-20.13,19.63s-28.91,5.68-40.27.51a12.45,12.45,0,0,1-2.8-1.76l0,0c-3-7.15-3.65-14.75,4-26.27,9.65-14.45,34.43-20.64,34.43-20.64s12.69-3,26.4-7.31C1307.41,1186.26,1302.5,1205.7,1299.28,1212.64Z"/><path class="cls-26" d="M1478.88,1235.7c-.69,14.45-9.63,25.47-18.59,35.79s-43.36,23.39-64,28.21-34.4,13.76-46.8,18.56-55,6.91-67.44-1.36-29.57-28.91-30.27-48.19c-.64-17.95,8.29-18.56,9.49-18.56h.13s22.72,6.88,32.35,13.07,30.29,5.49,35.79,2.05,11-9.63,6.88-19.95-27.52-29.6-27.52-29.6a194.32,194.32,0,0,1,41.28-37.84c18.29-12.19,41.81-20.61,57.57-23.92a96.39,96.39,0,0,1,16.08,1.2c22.69,4.13,34.4,24.77,35.76,29.6s0,16.51,0,16.51,11.71,2.08,15.15,6.21S1479.57,1221.25,1478.88,1235.7Z"/><path class="cls-27" d="M1462.18,1152.79c-5.08,23.93-27.47,43.83-46.06,49.54s-29.91,4.78-29.91,4.78l-10.12,3.31s2.74,10.58-18.85,15-54.43,6.89-71.13-16.75c0,0-7.27-12-14.75-15.72a18.9,18.9,0,0,1-8.4-7.52c-3-4.74-5.12-12.17-3-23.47,4.64-25,19.44-40.86,32.06-43.42a63.67,63.67,0,0,1,23.85-.11l8-2.95s-1.64-17.74,6.1-30.05c6.13-9.71,14.62-20.86,25.2-23.49a.24.24,0,0,1,.14,0,18.91,18.91,0,0,1,8.73-.08c8.2,1.83,15,4.64,19.88,8.09,3.92,2.73,6.58,5.87,7.69,9.2,2.49,7.46,3,26.15,3,26.15l9.95,4.94s9.65-9.53,26.68-.95c.44.22.87.45,1.31.7C1450.41,1119.7,1467.26,1128.88,1462.18,1152.79Z"/><path class="cls-28" d="M1462.18,1152.79c-5.08,23.93-27.47,43.83-46.06,49.54s-29.91,4.78-29.91,4.78l-10.12,3.31s2.74,10.58-18.85,15-54.43,6.89-71.13-16.75c0,0-7.27-12-14.75-15.72,0,0,28.64,4.43,48.58,1.43s31.74-2,35.42-9-1.23-16.16-1.23-16.16l6.76-.48s8.59,9,32,7.84,39.62-34.53,33.86-46.4-15.64-11.14-15.64-11.14,8.61-8,20.16-9.78c.44.22.87.45,1.31.7C1450.41,1119.7,1467.26,1128.88,1462.18,1152.79Z"/><path class="cls-29" d="M1388.72,1122.54c-5.92,13-24.75,19.36-24.75,19.36s15.9-8.35,17.94-36.15c1.34-18.29-9.43-23.65-5.7-31.29,1.64-3.37,3.51-4.89,7.71-4.55,3.92,2.73,6.58,5.87,7.69,9.2,2.49,7.46,3,26.15,3,26.15S1394.63,1109.58,1388.72,1122.54Z"/><path class="cls-30" d="M1360.1,1100.08c-3.4,10.07-2.71,23.32-10.36,25.28s-19.69-2.91-25.86-9.9c0,0-1.64-17.74,6.1-30.05,6.13-9.71,14.62-20.86,25.2-23.49a.24.24,0,0,1,.14,0,9.79,9.79,0,0,1,6.07,1C1370,1067.75,1363.53,1090,1360.1,1100.08Z"/><path class="cls-31" d="M1310.5,1158.11c-12.36,5.45-22.72,2.27-22.72,2.27s-2.65,3.93-1.93,10.7c.61,5.56-11.21,21-22.89,14.35-3-4.74-5.12-12.17-3-23.47,4.64-25,19.44-40.86,32.06-43.42a63.67,63.67,0,0,1,23.85-.11s5.85,4.36,5.19,15.2S1322.86,1152.65,1310.5,1158.11Z"/><path class="cls-32" d="M1811.28,1150.37c-20.67,36.45-47.49,70.88-109.44,68.13-52.24-2.35-105-26.21-123.92-43.12-3.52-3.15-5.87-6-6.83-8.51,0,0-8.93-13.76-4.83-24.08a74,74,0,0,1,12.56-21.31,47.2,47.2,0,0,1,19.79-13.79c19.28-6.88,91.55-20.64,119.76-25.47s66.75,0,78.45,6.88S1831.92,1113.89,1811.28,1150.37Z"/><path class="cls-33" d="M1811.28,1150.37c-20.67,36.45-47.49,70.88-109.44,68.13-52.24-2.35-105-26.21-123.92-43.12,6.61-9.52,12.8-19.33,14.51-25,3.41-11.33-9.09-24.56-13.6-28.88a47.2,47.2,0,0,1,19.79-13.79c19.28-6.88,91.55-20.64,119.76-25.47s66.75,0,78.45,6.88S1831.92,1113.89,1811.28,1150.37Z"/><path class="cls-34" d="M1878,1254.26c-24.77,19.28-110.11,24.11-110.11,24.11l-7.57,6.19s6.19,16.51-15.15,30.27-119,32.35-143.15,8.27-46.77-44-66.75-42-33.71-12.4-35.09-25.47c-1.09-10.4-7.41-21.65-9.95-25.84-.67-1.07-1.07-1.68-1.07-1.68a22.09,22.09,0,0,1,5.52-22.72l17.2-17.2s4.8-11,8.24-11.71c1.33-.27,3.47,1.12,5.6,2.91a71.16,71.16,0,0,1,6.8,6.75l6.88-2.08s-10.32-11,1.39-19.25,23.39-10.32,35.79-8.27a27.24,27.24,0,0,0,8.32.05c8.45-1.2,15.31-5.71,20.56-6.24,6.91-.69,32.35-6.88,46.8-4.13s39.23,8.93,39.23,8.93,28.91-7.57,42.67.69h6.88s-8.93-18.59,3.44-31.65,37.17-15.15,46.11-18.59,4.13-15.81,25.47-19.95,37.17-5.52,41.31,6.19a49,49,0,0,1,2.05,22.72l7.57,2.75s-7.57-10.32,9.63-3.44,31,31.65,32.35,53S1902.8,1235,1878,1254.26Z"/><path class="cls-35" d="M1516,1189.94s9.55,14.69,8.77,20.37-11.09,13.17-24.27,18.08c-4.48,1.65-7.84,1.87-10.29,1.41-.67-1.07-1.07-1.68-1.07-1.68a22.09,22.09,0,0,1,5.52-22.72l17.2-17.2s4.8-11,8.24-11.71c1.33-.27,3.47,1.12,5.6,2.91,1.28,4.43-.43,9.6-2,10.77C1521.73,1191.73,1516,1189.94,1516,1189.94Z"/><path class="cls-36" d="M1596,1179.36c-1.81,8.24-19.89,8.51-32.53,9a63.26,63.26,0,0,1-24.08-4.32s-10.32-11,1.39-19.25,23.39-10.32,35.79-8.27a27.24,27.24,0,0,0,8.32.05C1593.84,1161.94,1597.76,1171.46,1596,1179.36Z"/><path class="cls-37" d="M1734.19,1212.3c-20.65,11-41.29-8.95-41.29-8.95l-8.95,3.44s2.75,11-14.45,27.53-66.06,2.75-68.13,0-17.89-13.76-31-15.83-56.43,11.7-67.44,21.33a26.44,26.44,0,0,0-5.12,5.83,45.56,45.56,0,0,1,2.37,10c1.38,13.08,15.14,27.53,35.1,25.46s42.67,17.89,66.75,42,121.81,5.51,143.14-8.26,15.14-30.28,15.14-30.28l7.57-6.19s85.33-4.82,110.11-24.09,32.34-66.06,31-87.4-15.14-46.11-32.34-53-9.63,3.44-9.63,3.44l-2.75,6.88-6.88-.69,2.06-8.95a48.68,48.68,0,0,0-2.06-22.71c-4.13-11.7-20-10.32-41.29-6.19s-16.52,16.52-25.46,20c-8.16,3.14-29.47,5.16-42.55,15.41,5,4.33,14.5,14.07,13,23.81-2.06,13.08-20,11-20,11h-6.88S1754.83,1201.29,1734.19,1212.3Z"/><path class="cls-38" d="M1554.5,1196.9H1540c-2.08-8-7.49-10.75-7.49-10.75l6.88-2.08Z"/><path class="cls-39" d="M1811.28,1078.1c-5.52,15.15-26.16,30.29-37.87,31.65a162.38,162.38,0,0,1-16.51,1.39s-3.44,9.63-10.32,11a60.07,60.07,0,0,1-10.32,1.36.21.21,0,0,1,0,.08c-.77,1.49-13.28,25.65-41.28,33.65-28.91,8.24-62.61,5.49-75.68-4.13-12.4-9.12-18-18.88-18.56-19.87a.21.21,0,0,1,0-.08s-22.59,11.68-33.31-4.13c0,0-39.65-8.27-46.53-22a60.79,60.79,0,0,1-6.05-19.55c-1.15-9.23.43-18.48,6.75-25.2,11-11.68,26.16-13.76,26.16-13.76s7.57-17.2,23.39-24.08,20-8.27,20-8.27l6.19-8.93s-12.4-10.32-4.83-37.84,26.85-53,50.24-57.12c16.08-2.85,31.52-6,42.93-3.68,5.2,1.07,9.57,3.25,12.8,7.12,10.32,12.37,17.2,24.77,21.33,28.91s18.59,13.07,19.28,22.69c0,.37.05.75.05,1.15.37,9.73-2.8,25-2.8,25s6.88-.69,9.63,2.05,5.49,8.27,5.49,8.27,9.65-14.45,24.77-1.39,8.27,48.88,8.27,48.88,9-6.21,16.51-1.39S1816.77,1063,1811.28,1078.1Z"/><path class="cls-40" d="M1673.62,953.54c-6.88,12.4-3.44,50.93-24.08,54.37s-52.29-.69-52.29-.69-12.4-10.32-4.83-37.84,26.85-53,50.24-57.12c16.08-2.85,31.52-6,42.93-3.68,5.28,4.19,8.83,9.39,10.05,14.69C1698.4,935,1680.5,941.17,1673.62,953.54Z"/><path class="cls-41" d="M1649.54,1037.49c-3.44,17.89-9.63,33.73-27.52,37.17s-46.8-8.93-48.85-9.63-15-7.15-15.81-7.55c.61.37,10.37,6.48,13,16.48,2.77,10.32-.67,28.21-16.51,33s-22.72,4.13-35.09-13.76c-1.36-2-2.72-3.92-4-5.79-1.15-9.23.43-18.48,6.75-25.2,11-11.68,26.16-13.76,26.16-13.76s7.57-17.2,23.39-24.08,20-8.27,20-8.27,21.33,4.83,34.4,2.08,24.08-10.32,24.08-10.32S1653,1019.6,1649.54,1037.49Z"/><path class="cls-42" d="M1811.28,1078.1c-5.52,15.15-26.16,30.29-37.87,31.65a162.38,162.38,0,0,1-16.51,1.39s-3.44,9.63-10.32,11a60.07,60.07,0,0,1-10.32,1.36.21.21,0,0,1,0,.08c-.77,1.49-13.28,25.65-41.28,33.65-28.91,8.24-62.61,5.49-75.68-4.13-12.4-9.12-18-18.88-18.56-19.87a.21.21,0,0,1,0-.08l-4.64-10.85c-9.31,6.19-28.67,6.72-28.67,6.72,19.33-1,31.23-28.4,31.23-28.4,12.91,22.72,75.89,39.76,98.59,22.72s1-29.41,1-29.41c40.27,1,49.55-21.68,49.55-21.68s12.91,4.13,21.15-1,15.49-19.95,15.49-19.95,9-6.21,16.51-1.39S1816.77,1063,1811.28,1078.1Z"/><path class="cls-43" d="M1784.42,1051.28c-7.57,9-29.25,11.33-43.71,9.28S1706,1048.5,1706,1048.5s34.43-11.68,42-24.08,3.44-20.64,3.44-20.64,9.65-14.45,24.77-1.39S1784.42,1051.28,1784.42,1051.28Z"/><path class="cls-44" d="M1736.26,993.46s-18.59,10-29.95,12-31,0-31,0,24.08-8.93,33.36-18.56,17.89-19.63,22.72-21.33c2.8-1,5.68.88,7.63,2.85C1739.44,978.18,1736.26,993.46,1736.26,993.46Z"/><path class="cls-45" d="M755.78,1284.9c-4.13,20.13-60.91,37.15-60.91,37.15s-7.23,18.08-20.13,17.55c0,0,6.19,34.59-27.36,38.21s-64.51-12.91-66.56-31.49l-11.36-4.64s-15.49,23.23-42.85,0c0,0-20.11-11.87-18.05-27.36,1.92-14.53,12.51-18.16,13.81-18.56l.13,0-1-4.64s-31,12.4-28.4-5.68S507,1260.64,507,1260.64s-9.17-5.17,3.71-18.75a74.92,74.92,0,0,1,6.61-6c22.19-18.05,62.45-6.19,62.45-6.19l5.68-1s-10.85-10.83,5.68-15.47,53.68-2.08,56.77,16.51c.85,5.09,1.55,8.93,2.11,11.84,1.47,7.71,2,8.8,2,8.8s27.87-18.05,56.24-15.49a54.55,54.55,0,0,1,27,10.51C749.62,1255.73,758.48,1271.84,755.78,1284.9Z"/><path class="cls-46" d="M650,1241.52c-9.23,6.19-25.12,8.8-37.55,7.25-19.28-2.4-23.07-14.11-23.07-14.11l-5.84,4.13s-4.83,17.2-17.2,20.64-39.57,4.13-52-7.23a10.79,10.79,0,0,1-3.68-10.32,74.92,74.92,0,0,1,6.61-6c22.19-18.05,62.45-6.19,62.45-6.19l5.68-1s-10.85-10.83,5.68-15.47,53.68-2.08,56.77,16.51C648.77,1234.77,649.47,1238.61,650,1241.52Z"/><path class="cls-47" d="M755.78,1284.9c-4.13,20.13-60.91,37.15-60.91,37.15s-7.23,18.08-20.13,17.55c0,0,6.19,34.59-27.36,38.21s-64.51-12.91-66.56-31.49l-11.36-4.64s-15.49,23.23-42.85,0c0,0-20.11-11.87-18.05-27.36,1.92-14.53,12.51-18.16,13.81-18.56l.13,0s-3.63,5.33,16.67,11.55,48.53-4.48,49.23-22.72l8.24-1.39s3.44,14.45,22.37,22,46.45-13.76,45.41-23.73-12-29.6-12-29.6h5.15s29.6,17.2,49.2,9.31a132.28,132.28,0,0,0,28.59-15.84C749.62,1255.73,758.48,1271.84,755.78,1284.9Z"/><polygon class="cls-4" points="700.9 1282.15 709.85 1259.44 710.54 1243.95 685.42 1207.48 688.17 1206.45 712.94 1239.14 735.65 1196.13 747.01 1197.5 716.73 1241.2 718.45 1263.91 715.01 1280.43 700.9 1282.15"/><path class="cls-48" d="M851.28,1335c-10.85,11.36-19.63,18.08-57.81,26.85s-76.4-5.68-78.45-7.23S702.1,1353,702.1,1353s10.32,27.36-13.95,31-55.23-9.81-58.32-19.6,3.63-20.67,3.63-20.67-10.85-4.64-11.87-9.28c0,0-9.31-11.76-6.48-26.64.08-.4.16-.83.27-1.23,3.63-15.49,9.31-25.31,26.35-24.77a49.86,49.86,0,0,1,27.87,9.28,12.56,12.56,0,0,1,4.64-1.55c3.09-.51,8.27.51,8.27.51s-6.72-16,10.83-22.69c12.19-4.67,25.12.37,31.89,3.89a46.85,46.85,0,0,1,4.75,2.8,13.9,13.9,0,0,1,7.23-3.6c4.13-.51,16-3.63,16-3.63s-7.84-6.35-5.68-12.4c0,0,0,0,0,0,1.47-4,7.31-7.92,22.72-9.76,14-1.68,26.05-1.33,35.71.29,7.76,1.33,14,3.49,18.4,6.13,5.28,3.09,8,6.85,7.81,10.61-.51,10.83-10.32,23.73-10.32,23.73a120,120,0,0,1,16.53,10.85C846.1,1302.45,862.1,1323.6,851.28,1335Z"/><path class="cls-49" d="M851.28,1335c-10.85,11.36-19.63,18.08-57.81,26.85s-76.4-5.68-78.45-7.23S702.1,1353,702.1,1353s10.32,27.36-13.95,31-55.23-9.81-58.32-19.6,3.63-20.67,3.63-20.67,8.77-9.28,24.77-12.91,34.05,11.36,39.23,10.85,11.36-.51,11.36-3.09,24.77-26.32,41.79-28.91,31.49,5.15,38.72,3.6,19.6-22.19,28.4-25.79c0,0-32,0-41.31-7.23,0,0,51-10.21,47.92-29.2,5.28,3.09,8,6.85,7.81,10.61-.51,10.83-10.32,23.73-10.32,23.73a120,120,0,0,1,16.53,10.85C846.1,1302.45,862.1,1323.6,851.28,1335Z"/><path class="cls-50" d="M730.5,1296.77c-10.35,6.72-45.17-3.6-47-3.09s-11.6,2.05-11.6,2.05a13.55,13.55,0,0,1-5.68,12.13c-6.72,4.91-33,11.87-47.49,2.85a18.37,18.37,0,0,1-3.63-2.91c.08-.4.16-.83.27-1.23,3.63-15.49,9.31-25.31,26.35-24.77a49.86,49.86,0,0,1,27.87,9.28,12.56,12.56,0,0,1,4.64-1.55c3.09-.51,8.27.51,8.27.51s-6.72-16,10.83-22.69c12.19-4.67,25.12.37,31.89,3.89C731.6,1278.64,738.69,1291.44,730.5,1296.77Z"/><path class="cls-51" d="M776.69,1262.18c-14.19,2.59-24.27.53-28.91-7.23a2.49,2.49,0,0,1-.27-.53s0,0,0,0c1.47-4,7.31-7.92,22.72-9.76,14-1.68,26.05-1.33,35.71.29C811.28,1251.49,790.16,1259.73,776.69,1262.18Z"/><path class="cls-52" d="M831.3,1184.77c-28.21,24.77-57.12,22-57.12,22s13.76,10.32-17.2,19.25-139,8.27-143.15-19.95l-7.57-7.57s-40.59,5.52-53-17.2,9-31,9-31l4.83-4.83s-27.55-19.28,15.12-44.05c0,0-8.69-10.19-4.77-20.8,1.36-3.71,4.24-7.47,9.6-10.85,20.64-13.07,37.15-6.88,37.15-6.88l6.91-3.44s-3.79-11.36,1.25-18.05a0,0,0,0,1,0,0c2.37-3.17,6.77-5.28,14.53-4.61,24.08,2.05,17.89,15.12,43.36,13.07,22.21-1.79,70.05-4.64,70.51,20.67v0a30.89,30.89,0,0,1-3.07,13s13.76,4.83,21.33,11.71c0,0,5.49-19.95,33-1.36a71.25,71.25,0,0,1,14.11,12.8C845.28,1129.14,854.34,1164.53,831.3,1184.77Z"/><path class="cls-53" d="M831.3,1184.77c-28.21,24.77-57.12,22-57.12,22s13.76,10.32-17.2,19.25-139,8.27-143.15-19.95l-7.57-7.57s-40.59,5.52-53-17.2,9-31,9-31l4.83-4.83s4.8-11.71,31.65-15.15,51.6,15.15,51.6,15.15-31,15.15-4.83,28.91,84,13.76,96.35-.69,2.77-25.47,2.77-25.47l10.32-1.36s19.25,6.19,28.91-4.83,0-31,14.43-35.79c6-2,17-2,27.89.43C845.28,1129.14,854.34,1164.53,831.3,1184.77Z"/><path class="cls-54" d="M760.74,1070.56v0c-6.93,18.13-56.56,13.17-69.15,7.17-14.43-6.88-18.21-22.69-24.08-22.69s-24.43,3.09-32.69-5.87c-2.45-2.67-3-5.31-2.51-7.73a0,0,0,0,1,0,0c2.37-3.17,6.77-5.28,14.53-4.61,24.08,2.05,17.89,15.12,43.36,13.07C712.45,1048.1,760.29,1045.25,760.74,1070.56Z"/><path class="cls-55" d="M616.93,1080.16c-6.83,4.05-29.39,7.52-39.52.53,1.36-3.71,4.24-7.47,9.6-10.85,20.64-13.07,37.15-6.88,37.15-6.88C625.52,1066.74,624.51,1075.7,616.93,1080.16Z"/><path class="cls-56" d="M614,1108.73c-4.13,20.13-60.91,37.15-60.91,37.15S545.89,1164,533,1163.43c0,0,6.19,34.59-27.36,38.21s-64.51-12.91-66.56-31.49l-11.36-4.64s-15.49,23.23-42.85,0c0,0-20.11-11.87-18.05-27.36,1.92-14.53,12.51-18.16,13.81-18.56l.13,0-1-4.64s-31,12.4-28.4-5.68,13.95-24.77,13.95-24.77-9.17-5.17,3.71-18.75a74.88,74.88,0,0,1,6.61-6c22.19-18.05,62.45-6.19,62.45-6.19l5.68-1s-10.85-10.83,5.68-15.47,53.68-2.08,56.77,16.51c.85,5.09,1.55,8.93,2.11,11.84,1.47,7.71,2,8.8,2,8.8s27.87-18.05,56.24-15.49a54.55,54.55,0,0,1,27,10.51C607.86,1079.56,616.71,1095.67,614,1108.73Z"/><path class="cls-57" d="M508.26,1065.35c-9.23,6.19-25.12,8.8-37.55,7.25-19.28-2.4-23.07-14.11-23.07-14.11l-5.84,4.13s-4.83,17.2-17.2,20.64-39.57,4.13-52-7.23a10.78,10.78,0,0,1-3.68-10.32,74.88,74.88,0,0,1,6.61-6c22.19-18.05,62.45-6.19,62.45-6.19l5.68-1s-10.85-10.83,5.68-15.47,53.68-2.08,56.77,16.51C507,1058.6,507.7,1062.44,508.26,1065.35Z"/><path class="cls-58" d="M614,1108.73c-4.13,20.13-60.91,37.15-60.91,37.15S545.89,1164,533,1163.43c0,0,6.19,34.59-27.36,38.21s-64.51-12.91-66.56-31.49l-11.36-4.64s-15.49,23.23-42.85,0c0,0-20.11-11.87-18.05-27.36,1.92-14.53,12.51-18.16,13.81-18.56l.13,0s-3.63,5.33,16.67,11.55,48.53-4.48,49.23-22.72l8.24-1.39s3.44,14.45,22.37,22,46.45-13.76,45.41-23.73-12-29.6-12-29.6h5.15s29.6,17.2,49.2,9.31a132.28,132.28,0,0,0,28.59-15.84C607.86,1079.56,616.71,1095.67,614,1108.73Z"/><polygon class="cls-4" points="559.14 1105.98 568.09 1083.27 568.77 1067.78 543.65 1031.31 546.41 1030.28 571.18 1062.96 593.89 1019.96 605.25 1021.33 574.97 1065.03 576.69 1087.74 573.25 1104.26 559.14 1105.98"/><path class="cls-59" d="M709.51,1158.79c-10.85,11.36-19.63,18.08-57.81,26.85s-76.4-5.68-78.45-7.23-12.91-1.55-12.91-1.55,10.32,27.36-13.95,31-55.23-9.81-58.32-19.6,3.63-20.67,3.63-20.67-10.85-4.64-11.87-9.28c0,0-9.31-11.76-6.48-26.64.08-.4.16-.83.27-1.23,3.63-15.49,9.31-25.31,26.35-24.77a49.86,49.86,0,0,1,27.87,9.28,12.56,12.56,0,0,1,4.64-1.55c3.09-.51,8.27.51,8.27.51s-6.72-16,10.83-22.69c12.19-4.67,25.12.37,31.89,3.89a46.88,46.88,0,0,1,4.75,2.8,13.9,13.9,0,0,1,7.23-3.6c4.13-.51,16-3.63,16-3.63s-7.84-6.35-5.68-12.4c0,0,0,0,0,0,1.47-4,7.31-7.92,22.72-9.76,14-1.68,26.05-1.33,35.71.29,7.76,1.33,14,3.49,18.4,6.13,5.28,3.09,8,6.85,7.81,10.61-.51,10.83-10.32,23.73-10.32,23.73a119.92,119.92,0,0,1,16.53,10.85C704.34,1126.28,720.34,1147.43,709.51,1158.79Z"/><path class="cls-60" d="M709.51,1158.79c-10.85,11.36-19.63,18.08-57.81,26.85s-76.4-5.68-78.45-7.23-12.91-1.55-12.91-1.55,10.32,27.36-13.95,31-55.23-9.81-58.32-19.6,3.63-20.67,3.63-20.67,8.77-9.28,24.77-12.91,34.05,11.36,39.23,10.85,11.36-.51,11.36-3.09,24.77-26.32,41.79-28.91,31.49,5.15,38.72,3.6,19.6-22.19,28.4-25.79c0,0-32,0-41.31-7.23,0,0,51-10.21,47.92-29.2,5.28,3.09,8,6.85,7.81,10.61-.51,10.83-10.32,23.73-10.32,23.73a119.92,119.92,0,0,1,16.53,10.85C704.34,1126.28,720.34,1147.43,709.51,1158.79Z"/><path class="cls-61" d="M588.74,1120.6c-10.35,6.72-45.17-3.6-47-3.09s-11.6,2.05-11.6,2.05a13.55,13.55,0,0,1-5.68,12.13c-6.72,4.91-33,11.87-47.49,2.85a18.36,18.36,0,0,1-3.63-2.91c.08-.4.16-.83.27-1.23,3.63-15.49,9.31-25.31,26.35-24.77a49.86,49.86,0,0,1,27.87,9.28,12.56,12.56,0,0,1,4.64-1.55c3.09-.51,8.27.51,8.27.51s-6.72-16,10.83-22.69c12.19-4.67,25.12.37,31.89,3.89C589.84,1102.47,596.93,1115.27,588.74,1120.6Z"/><path class="cls-62" d="M634.93,1086c-14.19,2.59-24.27.53-28.91-7.23a2.49,2.49,0,0,1-.27-.53s0,0,0,0c1.47-4,7.31-7.92,22.72-9.76,14-1.68,26.05-1.33,35.71.29C669.51,1075.32,648.39,1083.56,634.93,1086Z"/><path class="cls-63" d="M689.54,1008.6c-28.21,24.77-57.12,22-57.12,22s13.76,10.32-17.2,19.25-139,8.27-143.15-19.95l-7.57-7.57s-40.59,5.52-53-17.2,9-31,9-31l4.83-4.83s-27.55-19.28,15.12-44.05c0,0-8.69-10.19-4.77-20.8,1.36-3.71,4.24-7.47,9.6-10.85,20.64-13.07,37.15-6.88,37.15-6.88l6.91-3.44s-3.79-11.36,1.25-18.05a0,0,0,0,1,0,0c2.37-3.17,6.77-5.28,14.53-4.61,24.08,2.05,17.89,15.12,43.36,13.07,22.21-1.79,70.05-4.64,70.51,20.67v0a30.89,30.89,0,0,1-3.07,13s13.76,4.83,21.33,11.71c0,0,5.49-19.95,33-1.36a71.24,71.24,0,0,1,14.11,12.8C703.51,953,712.58,988.36,689.54,1008.6Z"/><path class="cls-64" d="M689.54,1008.6c-28.21,24.77-57.12,22-57.12,22s13.76,10.32-17.2,19.25-139,8.27-143.15-19.95l-7.57-7.57s-40.59,5.52-53-17.2,9-31,9-31l4.83-4.83s4.8-11.71,31.65-15.15,51.6,15.15,51.6,15.15-31,15.15-4.83,28.91,84,13.76,96.35-.69,2.77-25.47,2.77-25.47l10.32-1.36s19.25,6.19,28.91-4.83,0-31,14.43-35.79c6-2,17-2,27.89.43C703.51,953,712.58,988.36,689.54,1008.6Z"/><path class="cls-65" d="M619,894.39v0c-6.93,18.13-56.56,13.17-69.15,7.17-14.43-6.88-18.21-22.69-24.08-22.69S501.33,882,493.06,873c-2.45-2.67-3-5.31-2.51-7.73a0,0,0,0,1,0,0c2.37-3.17,6.77-5.28,14.53-4.61,24.08,2.05,17.89,15.12,43.36,13.07C570.69,871.93,618.53,869.08,619,894.39Z"/><path class="cls-66" d="M475.17,904c-6.83,4.05-29.39,7.52-39.52.53,1.36-3.71,4.24-7.47,9.6-10.85,20.64-13.07,37.15-6.88,37.15-6.88C483.76,890.57,482.74,899.53,475.17,904Z"/><path class="cls-67" d="M210.15,1128.71c-1.48,6.85-8,13-15.63,18a133,133,0,0,1-16.82,9.14c-16,7.38-44.06,3.33-44.06,3.33s-3.85,5.16-6.45,6.16-58.45,4.66-76.06-3.37-7.59-12.11-7.59-12.11l-6.86-2.69s-20.34,10-44.08,6.25-34.85-18-34.82-34.57,8.36-11.19,8.36-11.19-4.08-15.36,4.79-29.41,37.86-20.56,37.86-20.56,71.88-6.14,102.71-1.11,81.82,42,95.27,59.56C210.16,1120.51,211,1124.73,210.15,1128.71Z"/><path class="cls-68" d="M169.47,1144.57c4.45,2.64,16.34,2.55,25.05,2.09a133,133,0,0,1-16.82,9.14c-16,7.38-44.06,3.33-44.06,3.33s-3.85,5.16-6.45,6.16-58.45,4.66-76.06-3.37-7.59-12.11-7.59-12.11l-6.86-2.69s-20.34,10-44.08,6.25-34.85-18-34.82-34.57,8.36-11.19,8.36-11.19-4.08-15.36,4.79-29.41,37.86-20.56,37.86-20.56,71.88-6.14,102.71-1.11,81.82,42,95.27,59.56c3.37,4.41,4.23,8.63,3.37,12.61a41,41,0,0,1-8.91,2C189.28,1132,162.41,1140.35,169.47,1144.57Z"/><path class="cls-4" d="M81.86,1227.48c.9-2.28,14.5-29.14,14.5-29.14L92,1151.67l8.56-47.78,4-.27-7.38,41.15,27-17.13,8-17.13,3.48-.35-7.59,26-28.92,19.72,9.3,40.72.49,5.46-13.45,34.21Z"/><polygon class="cls-4" points="212.6 1034.63 229.12 1021.48 234.61 999.03 237.06 998.98 233.38 1022.24 220.1 1041.83 212.6 1034.63"/><polygon class="cls-4" points="66.82 989.95 47.62 958.19 50.49 955.77 79.59 992.24 66.82 989.95"/><path class="cls-4" d="M83.87,984.7l6.34-27.18c2.28.9-2.42,29.84-2.42,29.84Z"/><path class="cls-69" d="M165.28,924.51c-3.42,17.4-15.76,42.45-35.53,45.8-26.19,4.41-64.39-7.63-64.39-7.63l-10.54.71s1,19.71-38.07,12.7S-59,955.36-56.57,923.9s29.62-45.47,29.62-45.47l.68-3.79s-8.41-6-6.46-13.9c1.19-4.83,6.27-10.35,19.58-15.66a85.47,85.47,0,0,1,21.74-4.5,74.73,74.73,0,0,1,19.28.81c21.43,3.84,25.59,9.78,25.59,9.78l7.67.72s-1.35-17.8,23.51-18.56a31.18,31.18,0,0,1,6,.45c24.13,3.85,53.93,32.5,53.62,40.84-.31,9.05-1.74,13.36-1.74,13.36a76,76,0,0,1,7,4.43c6.08,4.24,14.2,11.12,16.22,18.6a24.83,24.83,0,0,1,.28,8.7C165.87,921.22,165.63,922.84,165.28,924.51Z"/><path class="cls-70" d="M165.28,924.51c-9.84-3.93-26-17.36-24.19-24.77,1.23-4.88,5.14-6.7,8.45-7.34,6.08,4.24,14.2,11.12,16.22,18.6a24.83,24.83,0,0,1,.28,8.7C165.87,921.22,165.63,922.84,165.28,924.51Z"/><path class="cls-71" d="M142.54,888a232.32,232.32,0,0,1-29.79-19c-13.71-10.61-17.67-15.85-8.19-23.29,0,0-16.82-5.23-13.91-11.9,24.13,3.85,53.93,32.5,53.62,40.84C144,883.66,142.54,888,142.54,888Z"/><path class="cls-72" d="M53.46,851.17a33.51,33.51,0,0,1-25.94,1.2c-9.12-3.3-16.14-8-18.92-11.79a74.73,74.73,0,0,1,19.28.81C49.3,845.23,53.46,851.17,53.46,851.17Z"/><path class="cls-73" d="M129.75,970.31c-26.19,4.41-64.39-7.63-64.39-7.63l-10.54.71s1,19.71-38.07,12.7S-59,955.36-56.57,923.9s29.62-45.47,29.62-45.47l.68-3.79s-8.41-6-6.46-13.9c14.33-10.42,40.27-11.3,40.27-11.3-14.91,14.25,12.81,30.3,31.23,40.11s66.47-.45,66.47-.45l7.35,2.6s-14.87,17.51,7.23,28.64c15.08,7.6,35,3,46.23-.64C164.17,936.88,151.42,966.63,129.75,970.31Z"/><path class="cls-74" d="M328.06,981.59c-2.35,10.32-12.41,12-12.41,12s-3.43,16.46-19.17,11.7c0,0,5.22,11.68-12.7,10.89s-31.3-13.4-31.3-13.4-12.59,10.43-33.05,10.17-80.94-30.6-91.28-38.33-14.58-8.46-6.47-26.54c0,0-12.69-21.8-.33-30.81a21.19,21.19,0,0,1,4.32-2.43c12.71-5.62,31.16-1.58,35.28,2.19a54.38,54.38,0,0,0,8.14,6.35l6.48-.81s-4.42-12.19,8.53-19.28a33.59,33.59,0,0,1,7.16-2.8c21.56-5.9,66.4,2.64,66.4,2.64a24.68,24.68,0,0,1,7.47-3c5.77-1.36,14.28-1.43,23.41,5.08,11.23,8,22.28,28.54,27.82,43.48,2.57,6.92,3.94,12.64,3.6,15.38-.85,7.11-3.29,9.93-4.11,10.69-.12.1-.18.17-.24.21C316.35,974.77,330.34,971.56,328.06,981.59Z"/><path class="cls-75" d="M328.06,981.59c-2.35,10.32-12.41,12-12.41,12s-3.43,16.46-19.17,11.7c0,0,5.22,11.68-12.7,10.89s-31.3-13.4-31.3-13.4-12.59,10.43-33.05,10.17-80.94-30.6-91.28-38.33-14.58-8.46-6.47-26.54c0,0-12.69-21.8-.33-30.81a21.19,21.19,0,0,1,4.32-2.43c5.47,20,36.23,17.67,36.23,17.67s16,23.06,34.47,25.7S232.84,940,232.84,940l17.53,3.8s4.16,13.11,20,19.2,45.22,12,45.22,12l0,0C316.35,974.77,330.34,971.56,328.06,981.59Z"/><path class="cls-76" d="M316.36,948.67c-4.56-1-17-4.26-25.73-9.73-10.83-6.84-30.44-31.82-28.06-36a12.36,12.36,0,0,1,2.56-2.87c5.77-1.36,14.28-1.43,23.41,5.08C299.76,913.2,310.81,933.73,316.36,948.67Z"/><path class="cls-77" d="M247.26,912.52c3.63,2.67,4.73,6.25,1.71,8.2-5.53,3.57-28.9,6.85-28.56-2.19a8.94,8.94,0,0,1,1.21-2.83c-1.11,0-2.11,0-3-.08-11-.68-29.63-1.73-34.17-9.05a3.56,3.56,0,0,1-.36-3.32,33.59,33.59,0,0,1,7.16-2.8c21.56-5.9,66.4,2.64,66.4,2.64C260.06,907.42,254.79,910.49,247.26,912.52Z"/><path class="cls-78" d="M266.08,1078.72a26.26,26.26,0,0,1-7,9.16c-20,17.25-29.81,17.43-29.81,17.43s7,11.67-15.48,17.41-41.46-4.83-54.12-3.19-27.22,2.94-27.22,2.94-26.74-10.67-34.75-9.48-23.79,5.5-44.54-2.13S33.85,1084,33.85,1084l-7.58-8.52S22.52,1089.1,6.68,1083s-51.54-32-14-52.63c0,0-4-20.91,12.75-34.82S47,988.68,47,988.68c2.74-.52,12.62-4.27,24.48-6.38,11.5-2.08,24.86-2.63,35.42,2.79a171.76,171.76,0,0,0,30.75,11.79c8.67,2.44,14.66,3.51,14.66,3.51a29.34,29.34,0,0,1,28.75-7.86c18.08,4.55,32.6,14.29,35.76,22s-1.45,15.38-1.45,15.38l7.24,3.24s18.32-7.79,28.19,2.45a76.77,76.77,0,0,1,12.26,16.58C267.49,1060.43,270,1070,266.08,1078.72Z"/><path class="cls-79" d="M266.08,1078.72a26.26,26.26,0,0,1-7,9.16c-20,17.25-29.81,17.43-29.81,17.43s7,11.67-15.48,17.41-41.46-4.83-54.12-3.19-27.22,2.94-27.22,2.94-26.74-10.67-34.75-9.48-23.79,5.5-44.54-2.13S33.85,1084,33.85,1084l-7.58-8.52S22.52,1089.1,6.68,1083s-51.54-32-14-52.63c0,0-4-20.91,12.75-34.82S47,988.68,47,988.68s-13.3,6.07-9.6,20.91,44.73,11.93,44.73,11.93,42.36,25.15,58.89,31a67,67,0,0,0,30.62,3.55s-19.12,11.23,4.48,21.31,60.29-1.4,47.91-22.16c0,0,22.35-2.7,39-3C267.49,1060.43,270,1070,266.08,1078.72Z"/><path class="cls-80" d="M137.68,996.88a38.43,38.43,0,0,1-15,2.1c-13.53-.81-49.06-2.29-51.75-10.91a7.29,7.29,0,0,1,.61-5.77c11.5-2.08,24.86-2.63,35.42,2.79A171.76,171.76,0,0,0,137.68,996.88Z"/></g></g></g></svg>