<svg xmlns="http://www.w3.org/2000/svg" xmlns:xlink="http://www.w3.org/1999/xlink" viewBox="0 0 2000 1333.33"><defs><style>.cls-1{fill:none;}.cls-2{isolation:isolate;}.cls-3{fill:url(#linear-gradient);}.cls-4{clip-path:url(#clip-path);}.cls-5,.cls-6{opacity:0.25;mix-blend-mode:overlay;}.cls-5{fill:url(#linear-gradient-2);}.cls-6{fill:url(#linear-gradient-3);}.cls-7{fill:#ffdbc9;}</style><linearGradient id="linear-gradient" x1="318.19" y1="970.23" x2="2043.09" y2="202.23" gradientUnits="userSpaceOnUse"><stop offset="0" stop-color="#ffc191"/><stop offset="0.51" stop-color="#e08189"/><stop offset="1" stop-color="#6a85c8"/></linearGradient><clipPath id="clip-path"><rect class="cls-1" width="2000" height="1333.33"/></clipPath><linearGradient id="linear-gradient-2" x1="49.09" y1="581.41" x2="2704.58" y2="191.61" gradientUnits="userSpaceOnUse"><stop offset="0" stop-color="#fff"/><stop offset="1" stop-color="#fff" stop-opacity="0"/></linearGradient><linearGradient id="linear-gradient-3" x1="21.95" y1="389.14" x2="1989.96" y2="100.26" xlink:href="#linear-gradient-2"/></defs><title>img-bg</title><g class="cls-2"><g id="BACKGROUND"><rect class="cls-3" width="2000" height="1333.33"/></g><g id="OBJECTS"><g class="cls-4"><path class="cls-5" d="M-11.7,765.68s443.87-78.45,490.32-100.13,625.55-105.29,718.45-136.26S2082.75,105,2082.75,105l68.13,139.35s-910.45,303.48-944.51,312.77S487.91,681,478.62,684.13-2.75,766.88-2.75,766.88Z"/><path class="cls-6" d="M-7.57,631.48S844,427.1,1020.56,334.19s343.74-188.9,368.52-210.58S1553.2-40.52,1553.2-40.52L1454.1-59.1s-81.89,131.78-112.86,162.75S939.35,336.95,902.19,355.53-5.51,626-5.51,626Z"/><ellipse class="cls-7" cx="1012.3" cy="599.65" rx="10.32" ry="7.74" transform="translate(-95.44 203.1) rotate(-10.94)"/><ellipse class="cls-7" cx="600.73" cy="784.13" rx="5.83" ry="7.77" transform="translate(-200.81 1361.44) rotate(-88.31)"/><ellipse class="cls-7" cx="310.19" cy="606.34" rx="5.83" ry="7.77" transform="translate(-305.05 898.49) rotate(-88.31)"/><ellipse class="cls-7" cx="1043.99" cy="356.04" rx="7.77" ry="5.83" transform="translate(-55.23 264.37) rotate(-14.06)"/><ellipse class="cls-7" cx="1335.08" cy="219.78" rx="7.77" ry="5.83" transform="translate(-13.39 331.02) rotate(-14.06)"/><ellipse class="cls-7" cx="803.52" cy="437.4" rx="4.78" ry="3.58" transform="translate(-82.21 208.4) rotate(-14.07)"/><ellipse class="cls-7" cx="831.34" cy="418.66" rx="7.77" ry="5.83" transform="translate(-76.82 214.59) rotate(-14.07)"/><ellipse class="cls-7" cx="704.69" cy="195.87" rx="7.77" ry="5.83" transform="translate(-26.47 177.13) rotate(-14.07)"/><ellipse class="cls-7" cx="722.92" cy="173.34" rx="3.89" ry="2.91" transform="translate(-20.45 180.88) rotate(-14.06)"/><ellipse class="cls-7" cx="781.43" cy="172.04" rx="3.89" ry="2.91" transform="translate(-18.38 195.06) rotate(-14.06)"/><ellipse class="cls-7" cx="1060.83" cy="574.36" rx="4.2" ry="3.15" transform="translate(-89.75 211.86) rotate(-10.94)"/></g></g></g></svg>