<svg width="80" height="150" viewBox="0 0 80 150" fill="none" xmlns="http://www.w3.org/2000/svg">
<path d="M40 2.31982V116.34" stroke="white" stroke-width="2" stroke-miterlimit="10"/>
<path d="M45.6501 116.03C45.6501 119.15 43.1205 121.68 40.0001 121.68C36.8797 121.68 34.3501 119.15 34.3501 116.03C34.3501 112.91 36.8797 110.38 40.0001 110.38C43.1205 110.38 45.6501 112.91 45.6501 116.03Z" fill="#B72120" stroke="black" stroke-width="0.8"/>
<path d="M39.8139 125.15H40.1762L40.7337 147.43H39.2662L39.8139 125.15Z" fill="#F4C26A" stroke="black" stroke-width="0.5"/>
<path d="M39.1484 123.962L34.9428 145.841L33.5136 145.53L38.7951 123.886L39.1484 123.962Z" fill="#F4C26A" stroke="black" stroke-width="0.5"/>
<path d="M45.0572 145.841L40.8517 123.962L41.2049 123.886L46.4864 145.53L45.0572 145.841Z" fill="#F4C26A" stroke="black" stroke-width="0.5"/>
<path d="M37.5037 123.206C37.5897 122.749 37.7992 122.325 38.1085 121.98H41.8914C42.2008 122.325 42.4102 122.749 42.4962 123.206C42.5885 123.696 42.5341 124.204 42.3398 124.664C42.1455 125.124 41.8199 125.516 41.4038 125.792C40.9876 126.068 40.4993 126.215 40 126.215C39.5006 126.215 39.0123 126.068 38.5961 125.792C38.18 125.516 37.8544 125.124 37.6601 124.664C37.4658 124.204 37.4114 123.696 37.5037 123.206Z" fill="#F4C26A" stroke="black" stroke-width="0.5"/>
<path d="M22.05 12.2696H57.94C59.5858 12.2696 60.92 13.6038 60.92 15.2496V103.42C60.92 105.065 59.5858 106.4 57.94 106.4H22.05C20.4042 106.4 19.07 105.065 19.07 103.42V15.2496C19.07 13.6038 20.4042 12.2696 22.05 12.2696Z" fill="#A37529" stroke="black" stroke-width="0.8"/>
<g style="mix-blend-mode:multiply" opacity="0.2">
<path d="M57.95 11.8696H50.51V106.8H57.94C58.8364 106.8 59.6962 106.444 60.33 105.81C60.9639 105.176 61.32 104.316 61.32 103.42V15.2496C61.32 14.3549 60.9653 13.4967 60.3336 12.8631C59.7019 12.2296 58.8447 11.8723 57.95 11.8696Z" fill="#E62928"/>
</g>
<g style="mix-blend-mode:overlay" opacity="0.3">
<path d="M38.63 11.8696H29.25V106.8H38.63V11.8696Z" fill="#FFE6CF"/>
</g>
<path d="M68.5708 81.6838L68.4846 81.8596L68.5707 82.0356L72.1647 89.3798L68.6804 96.4998H11.3196L7.83534 89.3798L11.4293 82.0356L11.5154 81.8596L11.4292 81.6838L7.8354 74.3496L11.4293 67.0056L11.5154 66.8296L11.4292 66.6538L7.83546 59.3198L11.4292 51.9858L11.5155 51.8098L11.4292 51.6338L7.83546 44.2998L11.4292 36.9658L11.5154 36.7899L11.4293 36.6139L7.8354 29.2699L11.3195 22.1598H68.6806L72.1646 29.2699L68.5707 36.6139L68.4846 36.7899L68.5708 36.9658L72.1646 44.2998L68.5708 51.6338L68.4846 51.8098L68.5708 51.9858L72.1646 59.3198L68.5708 66.6538L68.4846 66.8296L68.5707 67.0056L72.1646 74.3496L68.5708 81.6838Z" fill="url(#paint0_radial_31_12867)" stroke="black" stroke-width="0.8"/>
<path d="M71.9689 89.7799L68.6804 96.4999H11.3196L8.03109 89.7799H71.9689Z" fill="#B31B1A" stroke="black" stroke-width="0.8"/>
<path d="M8.03146 74.7599H71.9686L68.6806 81.4699H11.3195L8.03146 74.7599Z" fill="#B31B1A" stroke="black" stroke-width="0.8"/>
<path d="M8.03146 59.7296H71.9686L68.6806 66.4396H11.3195L8.03146 59.7296Z" fill="#B31B1A" stroke="black" stroke-width="0.8"/>
<path d="M8.03109 44.6998H71.9689L68.6804 51.4198H11.3196L8.03109 44.6998Z" fill="#B31B1A" stroke="black" stroke-width="0.8"/>
<path d="M8.03109 29.67H71.9689L68.6804 36.39H11.3196L8.03109 29.67Z" fill="#B31B1A" stroke="black" stroke-width="0.8"/>
<defs>
<radialGradient id="paint0_radial_31_12867" cx="0" cy="0" r="1" gradientUnits="userSpaceOnUse" gradientTransform="translate(40 55) rotate(90) scale(40 34.7192)">
<stop stop-color="#F2A6A6"/>
<stop offset="1" stop-color="#B11919"/>
</radialGradient>
</defs>
</svg>
