<svg width="81" height="121" viewBox="0 0 81 121" fill="none" xmlns="http://www.w3.org/2000/svg">
<path d="M40.8538 6.2627V90.8727" stroke="white" stroke-width="2" stroke-miterlimit="10"/>
<path d="M45.0438 90.6326C45.0438 92.9467 43.1678 94.8226 40.8538 94.8226C38.5397 94.8226 36.6638 92.9467 36.6638 90.6326C36.6638 88.3185 38.5397 86.4426 40.8538 86.4426C43.1678 86.4426 45.0438 88.3185 45.0438 90.6326Z" fill="#B72120" stroke="black" stroke-width="0.6"/>
<path d="M40.729 97.4227H40.9687L41.3787 113.923H40.3287L40.729 97.4227Z" fill="#F4C26A" stroke="black" stroke-width="0.4"/>
<path d="M40.2006 96.5377L37.0959 112.744L36.0569 112.521L39.9721 96.489L40.2006 96.5377Z" fill="#F4C26A" stroke="black" stroke-width="0.4"/>
<path d="M44.6117 112.744L41.5071 96.5377L41.7356 96.489L45.6507 112.521L44.6117 112.744Z" fill="#F4C26A" stroke="black" stroke-width="0.4"/>
<path d="M39.0232 95.9693C39.0829 95.6368 39.2314 95.3273 39.4522 95.073H42.2754C42.4963 95.3273 42.6448 95.6368 42.7044 95.9693C42.769 96.3294 42.7266 96.7006 42.5824 97.0368C42.4381 97.373 42.1984 97.6595 41.893 97.8609C41.5875 98.0622 41.2297 98.1695 40.8638 98.1695C40.498 98.1695 40.1402 98.0622 39.8347 97.8609C39.5292 97.6595 39.2895 97.373 39.1453 97.0368C39.0011 96.7006 38.9586 96.3294 39.0232 95.9693Z" fill="#F4C26A" stroke="black" stroke-width="0.4"/>
<path d="M27.5338 13.7428H54.1638C55.3291 13.7428 56.2738 14.6875 56.2738 15.8528V81.2828C56.2738 82.4481 55.3291 83.3928 54.1638 83.3928H27.5338C26.3685 83.3928 25.4238 82.4481 25.4238 81.2828L25.4238 15.8528C25.4238 14.6875 26.3685 13.7428 27.5338 13.7428Z" fill="#A37529" stroke="black" stroke-width="0.8"/>
<g style="mix-blend-mode:multiply" opacity="0.2">
<path d="M54.1738 13.3428H48.6538V83.7928H54.1638C54.8295 83.7928 55.4679 83.5283 55.9386 83.0576C56.4094 82.5869 56.6738 81.9485 56.6738 81.2828V15.8528C56.6738 15.1888 56.4107 14.5519 55.9422 14.0815C55.4736 13.611 54.8378 13.3454 54.1738 13.3428Z" fill="#E62928"/>
</g>
<g style="mix-blend-mode:overlay" opacity="0.3">
<path d="M39.8338 13.3428H32.8738V83.7928H39.8338V13.3428Z" fill="#FFE6CF"/>
</g>
<path d="M3.0438 48.5627C3.0438 35.5552 12.0856 24.3093 25.1291 19.2027H56.5785C69.6221 24.3093 78.6638 35.5453 78.6638 48.5627C78.6638 61.5803 69.6219 72.8262 56.5785 77.9327H25.1291C12.0858 72.8262 3.0438 61.5704 3.0438 48.5627Z" fill="url(#paint0_radial_31_10591)" stroke="black" stroke-width="0.8"/>
<path d="M52.5039 18.8027H51.4539C59.0939 24.5327 63.9739 36.0327 63.9739 48.5627C63.9739 61.0927 59.0939 72.5627 51.4539 78.3327H52.5039C59.9239 72.3327 64.6139 60.9327 64.6139 48.5627C64.6139 36.1927 59.9239 24.8127 52.5039 18.8027Z" fill="#230606"/>
<path d="M17.7337 48.5627C17.7337 36.0227 22.6138 24.5627 30.2538 18.8027H29.2038C21.7838 24.8027 17.0938 36.2027 17.0938 48.5627C17.0938 60.9227 21.7938 72.3227 29.2038 78.3327H30.2538C22.6138 72.6027 17.7337 61.1027 17.7337 48.5627Z" fill="#230606"/>
<path d="M33.3637 48.5627C33.3637 36.0627 34.9737 24.5627 37.4937 18.8027H36.7837C34.2937 24.8027 32.7137 36.1727 32.7137 48.5627C32.7137 60.9527 34.2937 72.3727 36.7837 78.3327H37.4937C34.9737 72.5427 33.3637 61.0727 33.3637 48.5627Z" fill="#230606"/>
<path d="M44.9139 78.3327C47.4039 72.3327 48.9839 60.9627 48.9839 48.5627C48.9839 36.1627 47.4039 24.7527 44.9139 18.8027H44.2039C46.7239 24.5927 48.3339 36.0627 48.3339 48.5627C48.3339 61.0627 46.7239 72.5627 44.2039 78.3327H44.9139Z" fill="#230606"/>
<defs>
<radialGradient id="paint0_radial_31_10591" cx="0" cy="0" r="1" gradientUnits="userSpaceOnUse" gradientTransform="translate(40.8538 48.5677) rotate(90) scale(29.765 38.21)">
<stop stop-color="#F2A6A6"/>
<stop offset="0.879282" stop-color="#B11919"/>
</radialGradient>
</defs>
</svg>
